<svg xmlns="http://www.w3.org/2000/svg" viewBox="0 0 17.91 15.34"><defs><style>.cls-1{fill:#5faf50;}</style></defs><title>agregar</title><g id="Capa_2" data-name="Capa 2"><g id="Capa_1-2" data-name="Capa 1"><path class="cls-1" d="M17.11,6.09h-.76L15,1.53A1.78,1.78,0,0,0,13.31.27H11.14A1,1,0,0,0,10.49,0H7.43a1,1,0,0,0-.65.27H4.59a1.78,1.78,0,0,0-1.7,1.27L1.56,6.09H.81A.81.81,0,0,0,0,6.9v.2a.81.81,0,0,0,.81.81H1.1l1,6.85a.67.67,0,0,0,.66.58H15.17a.68.68,0,0,0,.66-.58l1-6.85h.3a.81.81,0,0,0,.8-.81V6.9A.81.81,0,0,0,17.11,6.09Zm-13-4.2a.52.52,0,0,1,.5-.37H6.78a1,1,0,0,0,.65.27h3.06a1,1,0,0,0,.65-.27h2.17a.51.51,0,0,1,.49.37l1.25,4.2H2.86Zm0,12.5H4.06a.72.72,0,0,1-.71-.65L2.94,9a.71.71,0,0,1,1.41-.12l.41,4.71A.69.69,0,0,1,4.12,14.39Zm3.9-.7a.71.71,0,1,1-1.41,0V9A.71.71,0,1,1,8,9Zm3.26,0a.71.71,0,0,1-1.42,0V9a.71.71,0,0,1,1.42,0Zm3.25.06a.71.71,0,0,1-.7.65h-.06a.71.71,0,0,1-.65-.76l.42-4.71a.69.69,0,0,1,.76-.64A.71.71,0,0,1,15,9Z"/></g></g></svg>