<svg xmlns="http://www.w3.org/2000/svg" viewBox="0 0 70 34"><defs><style>.cls-1{fill:#8c8c8c;}.cls-2{fill:#a4c639;}.cls-3{fill:#fff;}</style></defs><title>and</title><g id="Capa_2" data-name="Capa 2"><g id="Capa_1-2" data-name="Capa 1"><circle class="cls-1" cx="17" cy="17" r="17"/><circle class="cls-2" cx="53" cy="17" r="17"/><path class="cls-3" d="M23.57,13.56l-.1.09a7.82,7.82,0,0,0-.91.91,3.72,3.72,0,0,0-.8,1.77,4.17,4.17,0,0,0,0,1,4,4,0,0,0,1.2,2.48,2.49,2.49,0,0,0,1.09.68s0,0,0,0a.31.31,0,0,1,0,.08,8.89,8.89,0,0,1-.62,1.46,11.12,11.12,0,0,1-1,1.6,5.34,5.34,0,0,1-.91.93,2.85,2.85,0,0,1-.63.38,1.93,1.93,0,0,1-1.06.11,6.4,6.4,0,0,1-1.14-.31,5.81,5.81,0,0,0-1-.28,3,3,0,0,0-1.23.06,4.36,4.36,0,0,0-.77.26,6.78,6.78,0,0,1-.87.28,2,2,0,0,1-1.44-.21,3.72,3.72,0,0,1-.88-.7A7.42,7.42,0,0,1,11.54,23a12.94,12.94,0,0,1-1.24-2.5,9.67,9.67,0,0,1-.48-1.83,8.28,8.28,0,0,1-.1-1.79A7,7,0,0,1,10,15.12a5.09,5.09,0,0,1,1.07-1.93A3.56,3.56,0,0,1,13.91,12a5.31,5.31,0,0,1,1.11.16l1.07.28c.21.06.43.1.65.15a1.7,1.7,0,0,0,.71,0,10.65,10.65,0,0,0,1.14-.32,5.31,5.31,0,0,1,1.11-.28,4,4,0,0,1,1,0,3.7,3.7,0,0,1,1.73.63,5,5,0,0,1,.9.81C23.43,13.41,23.5,13.48,23.57,13.56Z"/><path class="cls-3" d="M20.12,8a1,1,0,0,1,.05.23,2.08,2.08,0,0,1,0,.61,4.17,4.17,0,0,1-1.75,2.85,2.2,2.2,0,0,1-1,.39l-.55.07h-.08a1.91,1.91,0,0,1,0-.24,4.76,4.76,0,0,1,.18-1.13,4.1,4.1,0,0,1,.7-1.4,3.41,3.41,0,0,1,1.12-.91A5.27,5.27,0,0,1,20.07,8Z"/><path class="cls-3" d="M50.22,26.67c-.07,0-.15,0-.22-.06a1.2,1.2,0,0,1-.8-.95.55.55,0,0,1,0-.18c0-.4,0-.8,0-1.21,0-.13,0-.27,0-.41,0-.34,0-.67,0-1,0,0,0-.05,0-.05-.24,0-.47,0-.7,0a1.34,1.34,0,0,1-.76-.15,1.32,1.32,0,0,1-.67-.89,2.12,2.12,0,0,1,0-.44c0-.54,0-1.09,0-1.64,0-2,0-4,0-6,0-.06,0-.08.08-.08H57.83c.06,0,.07,0,.07.08v7.9a1.17,1.17,0,0,1-.26.71,1.41,1.41,0,0,1-.87.52h-1c-.06,0-.1,0-.1.1v2.59a1.22,1.22,0,0,1-.94,1.16s-.07,0-.09,0h-.38a1.12,1.12,0,0,1-.63-.27,1.16,1.16,0,0,1-.42-.88V22.9c0-.06,0-.08-.08-.08H51.74c-.09,0-.09,0-.09.1V25.5a1.22,1.22,0,0,1-.86,1.14c-.07,0-.14,0-.2,0Z"/><path class="cls-3" d="M60.77,19.79a2.81,2.81,0,0,1-.08.31,1.25,1.25,0,0,1-1.82.59,1.16,1.16,0,0,1-.52-.77,1.26,1.26,0,0,1,0-.28c0-1.69,0-3.39,0-5.08a1.14,1.14,0,0,1,.59-1,1.11,1.11,0,0,1,.54-.17,1.17,1.17,0,0,1,1,.42,1.07,1.07,0,0,1,.28.64,0,0,0,0,0,0,0Z"/><path class="cls-3" d="M46.55,17.12v2.53a1.24,1.24,0,0,1-.29.81,1.12,1.12,0,0,1-.68.4,1.23,1.23,0,0,1-1.46-1,1.21,1.21,0,0,1,0-.19V14.51a1.1,1.1,0,0,1,.31-.75,1.16,1.16,0,0,1,.61-.37,1.21,1.21,0,0,1,1.09.25,1.27,1.27,0,0,1,.43.77v2.71Z"/><path class="cls-3" d="M57.9,13.09a4,4,0,0,0,0-.49,6.08,6.08,0,0,0-.16-.74,4.48,4.48,0,0,0-.48-1.1,5.19,5.19,0,0,0-.63-.85l-.47-.44a6.23,6.23,0,0,0-1-.65s0,0,0-.07.13-.25.2-.38l.31-.56c.1-.18.2-.36.29-.54s0-.22-.06-.25a.18.18,0,0,0-.25.09c-.07.14-.16.28-.23.42-.19.35-.39.7-.57,1a.06.06,0,0,1-.1,0l-.29-.11a5.89,5.89,0,0,0-1-.26,5.31,5.31,0,0,0-.79-.09,6.17,6.17,0,0,0-1,0l-.6.1a6,6,0,0,0-1,.33s0,0-.06,0l-.61-1.14-.2-.36A.2.2,0,0,0,49,7a.2.2,0,0,0,0,.28c0,.08.09.16.13.24l.62,1.12c.07.14.07.14-.07.21a5.12,5.12,0,0,0-1.15.85,5.48,5.48,0,0,0-.4.44,5,5,0,0,0-.52.77,4.3,4.3,0,0,0-.45,1.21,5,5,0,0,0-.12.95c0,.07,0,.09.09.09H57.82C57.89,13.18,57.91,13.16,57.9,13.09Zm-8-1.89a.47.47,0,0,1-.46-.47.47.47,0,1,1,.46.47Zm5,0a.47.47,0,1,1,.47-.46A.46.46,0,0,1,54.92,11.2Z"/></g></g></svg>