<svg xmlns="http://www.w3.org/2000/svg" viewBox="0 0 44.7 27.2"><defs><style>.cls-1{fill:#39b54a;}</style></defs><title>ayuda</title><g id="Capa_2" data-name="Capa 2"><g id="Capa_1-2" data-name="Capa 1"><path class="cls-1" d="M24.6,27.11c1.31.05,2.55.09,4,.09h.6v-.6c0-5.52-4.1-10.34-10.2-12l-.83-.23.71-.49a7.6,7.6,0,1,0-8.56,0l.71.49-.83.23C4.1,16.26,0,21.08,0,26.6v.6H.6c2.49,0,4.18-.05,6-.11C8.75,27,11.13,27,15.35,27,20,27,22.53,27,24.6,27.11ZM8.2,7.6A6.4,6.4,0,1,1,14.6,14,6.41,6.41,0,0,1,8.2,7.6ZM1.66,26H1.21l.05-.45C1.88,19.75,7.74,15.2,14.6,15.2s12.72,4.55,13.34,10.35L28,26h-.45c-.9,0-1.75,0-2.69-.07h-.2c-2.08-.07-4.67-.16-9.3-.16-4.21,0-6.62.08-8.74.14C5.07,25.94,3.61,26,1.66,26Z"/><path class="cls-1" d="M31.8,26.11c4.29,0,6.68.08,8.59.15,1.33,0,2.41.08,3.71.08h.6v-.6c0-5.08-3.77-9.56-9.37-11.15l-.8-.23.68-.48a7.1,7.1,0,1,0-8.22,0l.68.48-.8.23a14,14,0,0,0-1.64.58c.4.27.77.55,1.12.84a14.15,14.15,0,0,1,4.75-.81c6.4,0,11.7,4.08,12.34,9.49l.05.45H43c-.87,0-1.68,0-2.61-.07-1.94-.07-4.34-.15-8.63-.15H31q0,.35,0,.69v.51Zm-6.6-18A5.9,5.9,0,1,1,31.1,14,5.91,5.91,0,0,1,25.2,8.1Z"/></g></g></svg>