<svg xmlns="http://www.w3.org/2000/svg" viewBox="0 0 66 66"><defs><style>.cls-1{fill:#4cac37;}.cls-2{fill:#fff;}</style></defs><title>botella</title><g id="Capa_2" data-name="Capa 2"><g id="Capa_1-2" data-name="Capa 1"><circle class="cls-1" cx="33" cy="33" r="33"/><path class="cls-2" d="M29,43V32.33a6,6,0,0,1,.55-2.84,3.65,3.65,0,0,1,.49-.72A3.82,3.82,0,0,0,31,26.28c.06-1.41.13-2.83.24-4.24s.28-2.88.41-4.32a.86.86,0,0,0-.05-.27,1.58,1.58,0,0,1-.12-.5,1.92,1.92,0,0,0-.19-1.09,1,1,0,0,1,.89-1.33h2.7a.68.68,0,0,1,.2,0,.87.87,0,0,1,.72.71,1.52,1.52,0,0,1-.07.76,2.08,2.08,0,0,0-.05.75,1,1,0,0,1-.14.72.42.42,0,0,0,0,.25c.18,2.12.37,4.24.54,6.36.06.76.09,1.53.12,2.3a3.46,3.46,0,0,0,.94,2.26,4,4,0,0,1,1.06,2.58c.06,1.31.06,2.62.06,3.92,0,2.67,0,5.34,0,8,0,1.21,0,2.42,0,3.63a2.18,2.18,0,0,1-1,1.94,2.22,2.22,0,0,1-1,.28,27.57,27.57,0,0,1-5.45,0A2,2,0,0,1,29,47.31,8.76,8.76,0,0,1,29,45.86c0-1,0-1.94,0-2.9Zm.54-.4h0v2.8c0,.51,0,1,0,1.53A1.58,1.58,0,0,0,31,48.48a27.53,27.53,0,0,0,5.37,0,1.42,1.42,0,0,0,1.26-.95,2.55,2.55,0,0,0,.17-.81c0-1.25,0-2.49,0-3.73V32.4c0-.34,0-.68,0-1a4,4,0,0,0-1-2.45,3.59,3.59,0,0,1-1-2.13c0-.42-.07-.85-.09-1.27-.08-1.27-.13-2.54-.23-3.8-.12-1.43-.28-2.85-.42-4.28,0-.08,0-.22.06-.25s.16-.26.14-.42a1.89,1.89,0,0,1,.11-1.05.45.45,0,0,0-.45-.67h-2.6a.41.41,0,0,0-.39.61A2,2,0,0,1,32,17a.2.2,0,0,0,.06.17c.19.1.17.26.15.43-.16,1.6-.33,3.19-.46,4.78-.1,1.27-.16,2.55-.21,3.82a4.36,4.36,0,0,1-1.19,3,2.77,2.77,0,0,0-.45.68,5,5,0,0,0-.45,2.26c0,2.12,0,4.24,0,6.36Z"/><path class="cls-2" d="M33.59,49.3a26.32,26.32,0,0,1-2.84-.15,2.16,2.16,0,0,1-1.87-1.81,7.25,7.25,0,0,1-.07-1.23v-.25c0-.69,0-1.38,0-2.06V32.33a6.31,6.31,0,0,1,.56-2.91,3.49,3.49,0,0,1,.52-.76,3.61,3.61,0,0,0,1-2.39c.06-1.36.13-2.8.24-4.24.08-.93.17-1.88.27-2.79l.15-1.53a.39.39,0,0,0,0-.14l0-.09a1,1,0,0,0,0-.14,1.1,1.1,0,0,1-.08-.4,1.7,1.7,0,0,0-.16-1,1,1,0,0,1,0-1,1.18,1.18,0,0,1,1-.59h2.7l.23,0a1,1,0,0,1,.84.85,1.56,1.56,0,0,1-.07.84,1.59,1.59,0,0,0,0,.66v0a1.17,1.17,0,0,1-.17.82.65.65,0,0,0,0,.14c.06.75.13,1.49.19,2.23.12,1.36.24,2.76.35,4.14,0,.6.08,1.22.11,1.81,0,.17,0,.33,0,.49a3.28,3.28,0,0,0,.89,2.16,4.15,4.15,0,0,1,1.11,2.68c0,1.14,0,2.29,0,3.41v9.51c0,.87,0,1.77,0,2.65a2.35,2.35,0,0,1-1.11,2.07,2.65,2.65,0,0,1-1.08.31C35.34,49.26,34.46,49.3,33.59,49.3Zm-4.48-6.5h0v1c0,.68,0,1.37,0,2.06v.25a6.46,6.46,0,0,0,.07,1.17,1.83,1.83,0,0,0,1.59,1.56,28.9,28.9,0,0,0,5.43,0,2,2,0,0,0,.94-.27,2,2,0,0,0,1-1.81c0-.88,0-1.77,0-2.64v-3c0-2,0-4,0-6v-.52c0-1.11,0-2.26,0-3.39a3.9,3.9,0,0,0-1-2.49,3.64,3.64,0,0,1-1-2.36c0-.16,0-.32,0-.48,0-.6-.06-1.21-.1-1.81-.12-1.38-.24-2.78-.36-4.13-.06-.74-.12-1.49-.19-2.23a.55.55,0,0,1,.05-.35.88.88,0,0,0,.12-.62v0a1.77,1.77,0,0,1,.06-.79,1.31,1.31,0,0,0,0-.69.71.71,0,0,0-.59-.58l-.17,0h-2.7a.85.85,0,0,0-.71.43.67.67,0,0,0,0,.68,2,2,0,0,1,.2,1.17,1.18,1.18,0,0,0,.06.28l.06.17a.25.25,0,0,0,0,.07.68.68,0,0,1,0,.26c-.05.51-.1,1-.16,1.53-.09.91-.19,1.86-.26,2.78-.11,1.44-.18,2.88-.24,4.24a3.88,3.88,0,0,1-1.08,2.58,3.08,3.08,0,0,0-.47.69,5.94,5.94,0,0,0-.53,2.77V42.8Zm4.52,6c-.89,0-1.79-.05-2.7-.13a1.75,1.75,0,0,1-1.58-1.75c0-.35,0-.72,0-1.07v-.46c0-.46,0-.93,0-1.4V32.06a5.26,5.26,0,0,1,.47-2.32,2.72,2.72,0,0,1,.48-.72,4.21,4.21,0,0,0,1.14-2.88c0-1.23.11-2.53.21-3.82s.22-2.35.34-3.5c0-.43.08-.86.13-1.28,0-.19,0-.24-.07-.29a.32.32,0,0,1-.14-.33,1.88,1.88,0,0,0-.17-1.18.56.56,0,0,1,0-.56.59.59,0,0,1,.52-.28h2.61a.61.61,0,0,1,.59.89,1.67,1.67,0,0,0-.11,1v0a.47.47,0,0,1-.19.54s0,.07,0,.11c0,.51.11,1,.16,1.53.09.9.19,1.84.27,2.76s.11,1.7.15,2.52c0,.43.05.85.07,1.28s.05.82.1,1.27a3.35,3.35,0,0,0,.93,2,4.12,4.12,0,0,1,1,2.54c0,.32,0,.66,0,1q0,5.3,0,10.59v.68c0,1,0,2,0,3a2.58,2.58,0,0,1-.17.87,1.57,1.57,0,0,1-1.39,1A26.71,26.71,0,0,1,33.63,48.77Zm-4-6.05V44c0,.47,0,.94,0,1.4v.47c0,.34,0,.7,0,1.05A1.43,1.43,0,0,0,31,48.33a27.3,27.3,0,0,0,5.35,0,1.26,1.26,0,0,0,1.13-.84,2.44,2.44,0,0,0,.15-.77c0-1,0-2,0-3V43q0-5.3,0-10.59c0-.36,0-.69,0-1a3.74,3.74,0,0,0-1-2.35,3.7,3.7,0,0,1-1-2.22c0-.45-.08-.9-.1-1.28s0-.86-.07-1.28c0-.83-.08-1.68-.15-2.52S35.08,19.9,35,19c-.05-.51-.11-1-.16-1.53,0,0,0-.31.15-.4s.08-.07.06-.23v0a2.07,2.07,0,0,1,.13-1.14.3.3,0,0,0-.31-.46h-2.6a.29.29,0,0,0-.25.13.27.27,0,0,0,0,.26,2.12,2.12,0,0,1,.2,1.37s0,0,0,0a.52.52,0,0,1,.21.56c0,.44-.09.86-.13,1.29-.12,1.15-.24,2.33-.34,3.5s-.16,2.58-.21,3.81a4.44,4.44,0,0,1-1.23,3.07,2.72,2.72,0,0,0-.42.64,4.88,4.88,0,0,0-.43,2.19c0,1.51,0,3,0,4.52v6.14Z"/><path class="cls-2" d="M30.82,37.3v2.16a.65.65,0,0,1,0,.14.24.24,0,0,1-.27.25.23.23,0,0,1-.25-.25c0-.41,0-.82,0-1.22s0-.62,0-.94V35.1c0-.07,0-.17.05-.2a.41.41,0,0,1,.28-.12c.15,0,.2.14.2.28,0,.35,0,.7,0,1.06V37.3Z"/><path class="cls-2" d="M30.56,40h0a.34.34,0,0,1-.35-.36V39c0-.2,0-.41,0-.61s0-.32,0-.48,0-.3,0-.46V35.1c0-.1,0-.22.08-.28a.57.57,0,0,1,.36-.14.34.34,0,0,1,.3.38v4.55A.36.36,0,0,1,30.56,40Zm-.15-5a.57.57,0,0,0,0,.13c0,.89,0,1.64,0,2.34,0,.16,0,.31,0,.46s0,.32,0,.48,0,.41,0,.61,0,.4,0,.61a.13.13,0,0,0,.15.15c.08,0,.16,0,.17-.16V35.06c0-.08,0-.17-.1-.18A.35.35,0,0,0,30.41,35Z"/><path class="cls-2" d="M32.93,26.45a5.79,5.79,0,0,1-.33,1.93l0,.1a.26.26,0,0,1-.35.14.24.24,0,0,1-.14-.33,6.44,6.44,0,0,0,.33-2.09c0-.3.1-.42.29-.4s.26.13.24.44C32.94,26.33,32.93,26.41,32.93,26.45Z"/><path class="cls-2" d="M32.33,28.75a.28.28,0,0,1-.15,0,.3.3,0,0,1-.2-.18.34.34,0,0,1,0-.28,5.86,5.86,0,0,0,.32-1.89V26.2a.58.58,0,0,1,.14-.43.37.37,0,0,1,.26-.08c.36,0,.34.4.34.56s0,.13,0,.17v0a5.93,5.93,0,0,1-.33,2v0l0,.08A.38.38,0,0,1,32.33,28.75Zm.34-2.85c-.05,0-.07,0-.08,0a.5.5,0,0,0-.08.29v.16a5.57,5.57,0,0,1-.33,2,.14.14,0,0,0,0,.11.14.14,0,0,0,.09.08c.06,0,.15,0,.22-.09s0,0,0-.05l0,0a6.09,6.09,0,0,0,.31-1.9v0c0-.05,0-.11,0-.17,0-.33-.07-.33-.15-.34Z"/><path class="cls-2" d="M30.82,32.9v.8c0,.19-.1.31-.26.31s-.26-.11-.27-.3V32.09c0-.2.1-.31.26-.31s.27.12.27.32,0,.53,0,.8Z"/><path class="cls-2" d="M30.56,34.12a.37.37,0,0,1-.25-.1.43.43,0,0,1-.12-.31V32.09a.37.37,0,0,1,.36-.42.4.4,0,0,1,.26.1.49.49,0,0,1,.12.33v1.6a.39.39,0,0,1-.37.42Zm0-2.24h0s-.15,0-.15.21q0,.78,0,1.62a.23.23,0,0,0,.05.16.15.15,0,0,0,.11,0h0c.14,0,.16-.13.16-.21v-.9h0v-.7a.23.23,0,0,0-.06-.18A.12.12,0,0,0,30.56,31.88Z"/><path class="cls-2" d="M33.68,16.12H33c-.18,0-.28-.11-.27-.27A.25.25,0,0,1,33,15.6h1.28a.25.25,0,0,1,.28.26.27.27,0,0,1-.29.27h-.62Z"/><path class="cls-2" d="M34.06,16.23H33a.34.34,0,0,1-.29-.12.39.39,0,0,1-.09-.26A.36.36,0,0,1,33,15.5h1.28a.35.35,0,0,1,.38.37.36.36,0,0,1-.39.36Zm-.27-.2h.51c.12,0,.19,0,.19-.16s0-.16-.19-.16H33c-.15,0-.17.08-.18.16a.15.15,0,0,0,0,.1S33,16,33,16h.76Z"/><path class="cls-2" d="M31.32,30.23c-.2,0-.35-.2-.26-.35a2.64,2.64,0,0,1,.43-.51.29.29,0,0,1,.27,0c.07.05.14.2.12.24-.15.21-.32.4-.49.6C31.38,30.23,31.33,30.22,31.32,30.23Z"/><path class="cls-2" d="M31.33,30.33h0a.4.4,0,0,1-.35-.2.32.32,0,0,1,0-.3,3.58,3.58,0,0,1,.45-.54.38.38,0,0,1,.4,0,.44.44,0,0,1,.16.26.16.16,0,0,1,0,.12,5.08,5.08,0,0,1-.41.51l-.08.09a.17.17,0,0,1-.13.06Zm.27-.89h0a2.06,2.06,0,0,0-.41.49s0,0,0,.09a.22.22,0,0,0,.16.09h0l.07-.07c.13-.15.26-.31.38-.47a.36.36,0,0,0-.08-.12Z"/></g></g></svg>