<svg xmlns="http://www.w3.org/2000/svg" viewBox="0 0 35.09 30.05"><defs><style>.cls-1{fill:#fff;}</style></defs><title>canasta</title><g id="Capa_2" data-name="Capa 2"><g id="Capa_1-2" data-name="Capa 1"><path class="cls-1" d="M33.51,11.94H32L29.38,3A3.47,3.47,0,0,0,26.07.53H21.82A2,2,0,0,0,20.55,0h-6a2,2,0,0,0-1.27.53H9A3.47,3.47,0,0,0,5.67,3L3.05,11.94H1.58A1.58,1.58,0,0,0,0,13.52v.38a1.59,1.59,0,0,0,1.58,1.59h.58L4.08,28.92a1.32,1.32,0,0,0,1.3,1.13H29.71A1.31,1.31,0,0,0,31,28.92l1.92-13.43h.58a1.59,1.59,0,0,0,1.58-1.59v-.38A1.58,1.58,0,0,0,33.51,11.94ZM8,3.7A1,1,0,0,1,9,3h4.31a1.93,1.93,0,0,0,1.27.53h6A2,2,0,0,0,21.82,3h4.25a1,1,0,0,1,1,.73l2.45,8.24H5.59Zm.06,24.5H8a1.39,1.39,0,0,1-1.38-1.26l-.81-9.23a1.39,1.39,0,1,1,2.76-.24l.81,9.22A1.38,1.38,0,0,1,8.07,28.2Zm7.65-1.38a1.39,1.39,0,0,1-2.77,0V17.59a1.39,1.39,0,0,1,2.77,0Zm6.37,0a1.39,1.39,0,0,1-2.77,0V17.59a1.39,1.39,0,0,1,2.77,0Zm6.38.12a1.39,1.39,0,0,1-1.38,1.26H27a1.38,1.38,0,0,1-1.26-1.51l.81-9.22a1.39,1.39,0,1,1,2.76.24Z"/></g></g></svg>