<svg xmlns="http://www.w3.org/2000/svg" viewBox="0 0 66 66"><defs><style>.cls-1{fill:#4cac37;}.cls-2{fill:#fff;}</style></defs><title>carne</title><g id="Capa_2" data-name="Capa 2"><g id="Capa_1-2" data-name="Capa 1"><circle class="cls-1" cx="33" cy="33" r="33"/><path class="cls-2" d="M53.24,32.41a2.86,2.86,0,0,0,2.53-3.35,2.9,2.9,0,0,0-1.36-1.92.64.64,0,0,1-.35-.68A3.7,3.7,0,0,0,54,25.25a2.87,2.87,0,0,0-3.34-1.95,2.82,2.82,0,0,0-2.2,3,.8.8,0,0,1-.53.94c-.43.2-.86.42-1.27.63l-.92.47c-.34.17-.68.32-1,.48l-.48.21-.15.07-.85-2,.12-.07.61-.32c.47-.25.91-.48,1.35-.74s.88-.51,1.43.05a.37.37,0,0,0,.29.13h0a.69.69,0,0,0,.45-.21.53.53,0,0,0,.07-.74c-.23-.33-.49-.63-.76-.95l-.27-.32L42.58,26l-1.52-1.87,4.37-2.39-.07-.1-.25-.37a1.6,1.6,0,0,1,.19-2.16,1.61,1.61,0,0,1,2.47,2l-.42.72-.05.1.47.09,1.58.3a.57.57,0,0,0,.7-.38.5.5,0,0,0-.24-.71,1,1,0,0,1-.58-1.06,2.76,2.76,0,0,0-.9-2A3,3,0,0,0,46,17.49a2.73,2.73,0,0,0-1.91,1.09,2.85,2.85,0,0,0-.53,2.21.65.65,0,0,1-.41.81c-1,.5-1.91,1-2.81,1.51a.72.72,0,0,1-.76,0l-.56-.29A7.9,7.9,0,0,0,37.2,22a15.68,15.68,0,0,0-3.54-.42,13.67,13.67,0,0,0-7.56,2.27c-2.15,1.38-4.34,3-6.52,4.67A11.34,11.34,0,0,0,15,39.05a6.9,6.9,0,0,0,3.79,5.77A11.21,11.21,0,0,0,24.15,46c5.63,0,11.6,0,18.24,0a11.76,11.76,0,0,0,5.84-1.53A7.17,7.17,0,0,0,52,36.44a7.31,7.31,0,0,0-1.49-3.19.62.62,0,0,0-.88-.14.6.6,0,0,0-.09.88c0,.07.1.14.15.22l.13.18a6.53,6.53,0,0,1,1,4.82A5.88,5.88,0,0,1,48.24,43a10.38,10.38,0,0,1-5.93,1.77c-6.89,0-12.58,0-17.9,0a14.55,14.55,0,0,1-3.25-.38,5.9,5.9,0,0,1-4.88-5.06,10,10,0,0,1,2-7.78,17.08,17.08,0,0,1,5.25-4.25l.1-.06a2.51,2.51,0,0,0,.56-.38,13.34,13.34,0,0,1,9.05-4,8.36,8.36,0,0,1,8.2,3.82,16.72,16.72,0,0,1,.88,1.62l.41.79.09.18-.19,0-.22.06-.26.06a16,16,0,0,1-5.14-.16l-.23,0a16.3,16.3,0,0,0-5-.48,8.77,8.77,0,0,0-5.11,2.05,6.65,6.65,0,0,0-2.2,5.4,7.3,7.3,0,0,0,2.9,5.54,3.5,3.5,0,0,0,2.38.75.59.59,0,0,0,.48-.92.91.91,0,0,0-.6-.27,3.28,3.28,0,0,1-1.79-.73,6.2,6.2,0,0,1-2.1-5.49,5.42,5.42,0,0,1,3.13-4.27,9.66,9.66,0,0,1,6.39-.63,19.2,19.2,0,0,0,7.44.42c.48-.08.94-.19,1.43-.31l.68-.15.13,0,0,.12.18.46c.13.36.26.7.42,1a.66.66,0,0,1-.23.92,16.25,16.25,0,0,0-4.61,5.94A9.89,9.89,0,0,1,40,40.07a2.9,2.9,0,0,1-2.43,1.53.56.56,0,0,0-.38.17.6.6,0,0,0-.15.47.57.57,0,0,0,.58.58,2,2,0,0,0,.42,0h0a3.46,3.46,0,0,0,2.43-1.38,15.55,15.55,0,0,0,1.44-2.35c1.73-3.45,3.83-5.6,6.62-6.77.51-.22,1.05-.47,1.58-.76a.67.67,0,0,1,.89.12A2.9,2.9,0,0,0,53.24,32.41ZM51.5,30.27c-.08-.15-.16-.32-.24-.49l0-.13-4.3,2.06-.84-2.12,4.11-2.15-.07-.11c-.09-.16-.18-.29-.26-.43a1.62,1.62,0,0,1,2.47-2,1.56,1.56,0,0,1,.33,2c-.16.27-.34.53-.53.81l-.12.18L53,28a1.62,1.62,0,0,1,.44,3.15A1.63,1.63,0,0,1,51.5,30.27Z"/></g></g></svg>