<svg xmlns="http://www.w3.org/2000/svg" viewBox="0 0 20.01 20"><defs><style>.cls-1{fill:#415a99;}</style></defs><title>facebook</title><g id="Capa_2" data-name="Capa 2"><g id="Capa_1-2" data-name="Capa 1"><path class="cls-1" d="M0,20V0H20V20ZM7.46,10h.79c.32,0,.32,0,.32.32,0,1.63,0,3.26,0,4.88,0,.21,0,.28.27.28.56,0,1.12,0,1.69,0,.35,0,.35,0,.35-.36,0-1.62,0-3.24,0-4.86,0-.2,0-.26.26-.25h1c.13,0,.19,0,.2-.17,0-.38.08-.75.12-1.13,0-.2,0-.4.06-.61-.5,0-1,0-1.41,0-.23,0-.3-.07-.28-.29a3.62,3.62,0,0,0,0-.57c0-.58,0-.81.83-.81h.83V4.51H10.8a2.61,2.61,0,0,0-.48.05A1.85,1.85,0,0,0,8.64,6.28a13.3,13.3,0,0,0-.06,1.55c0,.22-.07.28-.28.27s-.55,0-.84,0Z"/></g></g></svg>