<svg xmlns="http://www.w3.org/2000/svg" viewBox="0 0 66 66"><defs><style>.cls-1{fill:#4cac37;}.cls-2{fill:#fff;}</style></defs><title>fruta</title><g id="Capa_2" data-name="Capa 2"><g id="Capa_1-2" data-name="Capa 1"><circle class="cls-1" cx="33" cy="33" r="33"/><path class="cls-2" d="M38.25,20.33a6.05,6.05,0,0,1,3.6-1.45c0,.22,0,.44.09.66a9.41,9.41,0,0,0,1.12,3.31c.12.2.26.39.4.58a2.43,2.43,0,0,0,.63.52A7.12,7.12,0,0,1,46,25.71,6.25,6.25,0,0,1,47,28.4,9,9,0,0,1,47,31.19a14.25,14.25,0,0,1-2.2,5.57,20.37,20.37,0,0,1-3.36,3.93,30.1,30.1,0,0,1-4.88,3.67,28.58,28.58,0,0,1-5.92,2.72,25.69,25.69,0,0,1-3.45.89,20.64,20.64,0,0,1-2.95.33,3.75,3.75,0,0,1-1.83-.38l-1-.49a.1.1,0,0,1-.06,0l-.82-1.33a.14.14,0,0,1,0-.15,13.24,13.24,0,0,1,.91-2.08,2.82,2.82,0,0,1,.72-.78,35.55,35.55,0,0,1,4.28-3.13c.87-.53,1.76-1,2.65-1.54a37,37,0,0,0,3.34-2.06,21.92,21.92,0,0,0,3.16-2.69,13.38,13.38,0,0,0,2.85-4.41A13.77,13.77,0,0,0,39,27.29a8,8,0,0,1,1.08-2.51,1.08,1.08,0,0,0,.1-.94,7.56,7.56,0,0,0-.83-2A8.07,8.07,0,0,0,38.25,20.33ZM23,46.82l.44.16a1.23,1.23,0,0,0,.54.09c.44,0,.89,0,1.33-.08A21.54,21.54,0,0,0,28,46.55a26.55,26.55,0,0,0,5.15-1.77,28.44,28.44,0,0,0,8.21-5.73,17.43,17.43,0,0,0,2.86-3.7,12.43,12.43,0,0,0,1.65-4.91,7.38,7.38,0,0,0-.07-2.15,4.7,4.7,0,0,0-1-2.18A6.42,6.42,0,0,0,43.42,25a4.47,4.47,0,0,1-1.13-1.08,8.57,8.57,0,0,1-1.31-3c0-.18-.07-.36-.11-.55l-.88.28.07.1a7,7,0,0,1,1.39,3.4,1.57,1.57,0,0,1-.19,1l-.3.54a7,7,0,0,0-.8,1.91,17.46,17.46,0,0,1-.53,1.74,14.9,14.9,0,0,1-3.38,5.32,21.8,21.8,0,0,1-3.17,2.66,39.34,39.34,0,0,1-3.46,2.1c-.94.54-1.89,1.09-2.81,1.66a33.82,33.82,0,0,0-3.87,2.85,1.91,1.91,0,0,0-.47.47,7.71,7.71,0,0,0-.64,1.4.11.11,0,0,0,0,.08l.11.16.91-.55a40.87,40.87,0,0,1,4.4-2.3l3.36-1.47a17.71,17.71,0,0,0,2.78-1.57,25.46,25.46,0,0,0,2.41-1.87,18.55,18.55,0,0,0,2.68-2.78,15.36,15.36,0,0,0,3.07-6.9,14.38,14.38,0,0,0,.22-2.17V26H43v.11a16.17,16.17,0,0,1-.17,2.2,17.71,17.71,0,0,1-.71,3,17.39,17.39,0,0,1-4.07,6.55,25,25,0,0,1-2.79,2.45,21.1,21.1,0,0,1-2.81,1.87c-.91.5-1.86.91-2.81,1.32s-2.07.9-3.09,1.4-1.82,1-2.72,1.46Z"/></g></g></svg>