<svg xmlns="http://www.w3.org/2000/svg" viewBox="0 0 66 66"><defs><style>.cls-1{fill:#4cac37;}.cls-2{fill:#fff;}</style></defs><title>gaseosas</title><g id="Capa_2" data-name="Capa 2"><g id="Capa_1-2" data-name="Capa 1"><circle class="cls-1" cx="33" cy="33" r="33"/><path class="cls-2" d="M43,35.3V30.4c0-1.37,0-2.74,0-4.1a2.9,2.9,0,0,0-.07-.66,2.93,2.93,0,0,0-.55-1.12c-.39-.53-.8-1.05-1.19-1.58a4,4,0,0,1-.59-.92.14.14,0,0,1,0-.19A1.47,1.47,0,0,0,41,20.36a1.58,1.58,0,0,0-1.61-1.22H36l2.16-4a.61.61,0,0,0-.19-.84.63.63,0,0,0-.85.13,1.4,1.4,0,0,0-.1.16l-2.46,4.54h-7A1.62,1.62,0,0,0,26,20.25a1.49,1.49,0,0,0,.4,1.59.13.13,0,0,1,0,.17,4.53,4.53,0,0,1-.58.91c-.41.55-.84,1.09-1.24,1.64A3.32,3.32,0,0,0,24,25.64a3.12,3.12,0,0,0-.08.52c0,.13,0,.25,0,.38V44.37a2.16,2.16,0,0,0,.1.72,2.5,2.5,0,0,0,1.24,1.43.59.59,0,0,1,.29.35,1.89,1.89,0,0,0,1.89,1.37h12a1.9,1.9,0,0,0,1.43-.64,2.16,2.16,0,0,0,.44-.85.28.28,0,0,1,.15-.17,6.25,6.25,0,0,0,.6-.4A2.3,2.3,0,0,0,43,44.36C42.94,41.34,43,38.32,43,35.3ZM27.45,20.41h12a.32.32,0,0,1,.32.44.29.29,0,0,1-.26.19H27.4a.31.31,0,0,1-.27-.33A.32.32,0,0,1,27.45,20.41ZM41.54,45a.09.09,0,0,1-.11.06H30.94a.64.64,0,0,0-.65.46.63.63,0,0,0,.51.8h9.35a.66.66,0,0,1-.51.61.62.62,0,0,1-.19,0h-12a.68.68,0,0,1-.7-.62h1.58a.64.64,0,0,0,.65-.41.63.63,0,0,0-.58-.85H25.51a.13.13,0,0,1-.15-.09,1.26,1.26,0,0,1-.12-.55V26.73h3.08a.67.67,0,0,0,.54-.2.6.6,0,0,0,.13-.68.61.61,0,0,0-.57-.38H25.49a.63.63,0,0,1,.07-.12c.35-.48.71-1,1.07-1.43l.53-.72a1.71,1.71,0,0,0,.3-.69c0-.07.05-.13.07-.21H39.26c.1,0,.15,0,.17.13a3.5,3.5,0,0,0,.8,1.43l1.11,1.46.09.15H30.93a.63.63,0,0,0-.13,1.25H41.68V44.38A1.38,1.38,0,0,1,41.54,45Z"/></g></g></svg>