<svg xmlns="http://www.w3.org/2000/svg" viewBox="0 0 66 66"><defs><style>.cls-1{fill:#4cac37;}.cls-2{fill:#fff;}</style></defs><title>granos</title><g id="Capa_2" data-name="Capa 2"><g id="Capa_1-2" data-name="Capa 1"><circle class="cls-1" cx="33" cy="33" r="33"/><path class="cls-2" d="M23.21,33.61a2.56,2.56,0,0,1-.65-3.17A2.5,2.5,0,0,1,25.14,29c.41-.74.76-1.51,1.22-2.2s1-1.31,1.53-2c-.19-.34-.4-.73-.64-1.11a2.35,2.35,0,0,1,.09-2.64,1.58,1.58,0,0,1,.31-.41c.18-.16.15-.29,0-.48q-1.14-2-2.26-3.93A1.05,1.05,0,0,1,26,14.62a1,1,0,0,1,1.31.49q1.16,2,2.3,4a.28.28,0,0,0,.36.17,3.09,3.09,0,0,1,1.51,0,2.1,2.1,0,0,1,1.29,1c.62,1.08,1.26,2.16,1.86,3.26a.68.68,0,0,0,.68.4c.53,0,1.05-.05,1.58-.07a4.45,4.45,0,0,1,1.81.23,2.63,2.63,0,0,1,1.61,1.45,20.61,20.61,0,0,0,1.8,3.21.43.43,0,0,0,.24.18,2.63,2.63,0,0,1,1.3,4.58l-.05.06.18.35a29.72,29.72,0,0,1,2.11,4,8.87,8.87,0,0,1,.8,2.74A8.6,8.6,0,0,0,47.55,43a5.53,5.53,0,0,1,.64,1.71,1.27,1.27,0,0,1-.71,1.37,4.64,4.64,0,0,1-2.06.47c-1.79,0-3.58,0-5.36,0a122.57,122.57,0,0,0-12.57,0q-3,.18-6.09.22a5.38,5.38,0,0,1-1.72-.31,1.31,1.31,0,0,1-.95-1.79c.17-.61.44-1.19.67-1.79a8.7,8.7,0,0,0,.4-.95c.16-.57.27-1.16.41-1.74a20,20,0,0,1,.87-2.75A34.42,34.42,0,0,1,23.21,33.61ZM43,34a5.09,5.09,0,0,1-.56.14c-1.21.21-2.42.42-3.63.61a32.11,32.11,0,0,1-5.78.52A30.91,30.91,0,0,1,29.3,35c-1.83-.26-3.65-.61-5.54-.94-1.57,3.23-2.35,3.55-3,7.12A.92.92,0,0,0,21,41a7.93,7.93,0,0,0,1.75-1.86c.16-.22.35-.26.53-.13a.34.34,0,0,1,0,.52,7,7,0,0,1-1.81,1.95,5.26,5.26,0,0,0-2.07,3.12c-.21.7,0,1,.66,1.21l.1,0A12.2,12.2,0,0,0,22,46q3-.09,6.09-.26a112.32,112.32,0,0,1,11.46,0c1.84.08,3.68.08,5.52.07a5.17,5.17,0,0,0,2-.35c.39-.17.55-.4.44-.8a5.53,5.53,0,0,0-1.25-2.44,7.58,7.58,0,0,0-2.85-1.69c-.29-.1-.39-.25-.32-.47s.26-.29.55-.18a9.44,9.44,0,0,1,2.27,1.13l.18.11C46,39.22,44,35.36,43,34Zm-10.34.58a42.65,42.65,0,0,0,7.24-.72c.71-.13,1.42-.3,2.14-.37a1.94,1.94,0,0,0,1.84-2.16,1.9,1.9,0,0,0-1.94-1.66c-1.32.18-2.64.41-4,.55-1.56.17-3.13.35-4.7.38a42.27,42.27,0,0,1-7.77-.83,3.23,3.23,0,0,0-.74-.11,1.91,1.91,0,0,0-.29,3.77c.41.09.83.14,1.24.23A38.59,38.59,0,0,0,32.65,34.6ZM25.9,29.13l.25.06,3.87.54a25.62,25.62,0,0,0,6.31,0c1.31-.14,2.61-.33,3.91-.5.39,0,.78-.12,1.17-.18,0-.06,0-.09,0-.11a19.22,19.22,0,0,1-1.67-3,1.93,1.93,0,0,0-1.62-1.22c-1-.09-1.91,0-2.78,0l-.47,1,1.15.5c.39.17.8.33,1.2.47s.43.24.36.46-.25.32-.55.21c-.56-.21-1.12-.43-1.67-.69a1.69,1.69,0,0,0-1-.19,15,15,0,0,0-1.75.45,15.31,15.31,0,0,1-2.19.86,2.82,2.82,0,0,0-1.63.72.3.3,0,0,1-.44,0,.31.31,0,0,1,0-.47,7.4,7.4,0,0,1,.69-.53,2.2,2.2,0,0,1,.41-.18L28.29,25.5A11.13,11.13,0,0,0,25.9,29.13Zm4.84-9.23a3.36,3.36,0,0,0-3,1.94,1.42,1.42,0,0,0,0,1.3L30,27a.29.29,0,0,0,.24.11,10.22,10.22,0,0,0,1.21-.43,10.77,10.77,0,0,1,2.18-.8.53.53,0,0,0,.31-.17c.17-.2.33-.42.49-.63a.45.45,0,0,0,0-.54c-.72-1.23-1.44-2.46-2.13-3.71A1.66,1.66,0,0,0,30.74,19.9Zm-1.67-.35-.54-.95-1.82-3.16c-.13-.24-.29-.26-.56-.1s-.27.28-.14.5c.47.81.93,1.62,1.39,2.43l1,1.69Z"/><path class="cls-2" d="M21.35,46.88a5.64,5.64,0,0,1-1.72-.32,1.47,1.47,0,0,1-1.05-2,12.07,12.07,0,0,1,.5-1.35l.18-.45c0-.13.11-.26.17-.38a3.25,3.25,0,0,0,.22-.56c.11-.36.19-.74.27-1.1s.09-.42.14-.63a7.5,7.5,0,0,1,.5-1.71,7.7,7.7,0,0,0,.37-1v0A12.91,12.91,0,0,1,22.18,35c.27-.43.55-.86.84-1.39a2.7,2.7,0,0,1-.6-3.27,2.63,2.63,0,0,1,2.63-1.54l.32-.6a14.51,14.51,0,0,1,.86-1.53,16.35,16.35,0,0,1,1.05-1.39l.43-.53a1.71,1.71,0,0,1-.13-.23c-.15-.25-.29-.52-.46-.78A2.49,2.49,0,0,1,27.2,21a2,2,0,0,1,.35-.45c.09-.08.1-.11,0-.28-.61-1.06-1.23-2.13-1.82-3.18l-.44-.76A1.2,1.2,0,0,1,26,14.48a1.12,1.12,0,0,1,1.5.55l.49.87c.6,1,1.21,2.09,1.8,3.13.06.11.08.12.2.1a3.17,3.17,0,0,1,1.59,0,2.32,2.32,0,0,1,1.38,1.09l.67,1.18c.4.68.8,1.38,1.19,2.09a.52.52,0,0,0,.54.32l1.11-.05.46,0a4.75,4.75,0,0,1,1.87.24,2.8,2.8,0,0,1,1.7,1.54,20.6,20.6,0,0,0,1.79,3.18.3.3,0,0,0,.14.12,2.67,2.67,0,0,1,2.22,2,2.71,2.71,0,0,1-.81,2.85v0l.13.24c.33.66.62,1.14.91,1.61A11.35,11.35,0,0,1,46.05,38a8.71,8.71,0,0,1,.81,2.77A8.52,8.52,0,0,0,47.69,43l.07.15a5.16,5.16,0,0,1,.58,1.61,1.41,1.41,0,0,1-.79,1.53,4.74,4.74,0,0,1-2.13.48h-.36c-1.64,0-3.34,0-5,0a118.46,118.46,0,0,0-12.55,0c-1.9.11-3.9.18-6.1.22Zm-.12-9.44a9.2,9.2,0,0,1-.38,1.08,6.91,6.91,0,0,0-.49,1.65c-.05.22-.1.43-.14.64s-.16.74-.27,1.11a4.07,4.07,0,0,1-.24.61,2.83,2.83,0,0,0-.16.36l-.19.45a12.39,12.39,0,0,0-.48,1.33,1.16,1.16,0,0,0,.85,1.6,5.68,5.68,0,0,0,1.67.3c2.19,0,4.18-.11,6.08-.22a119,119,0,0,1,12.58,0c1.66.07,3.36,0,5,0h.37a4.3,4.3,0,0,0,2-.45A1.08,1.08,0,0,0,48,44.75a4.74,4.74,0,0,0-.55-1.51l-.07-.16a8.31,8.31,0,0,1-.85-2.3,8.56,8.56,0,0,0-.8-2.71h0a11.35,11.35,0,0,0-1.18-2.37c-.29-.47-.58-1-.92-1.63l-.12-.24-.1-.2.08-.11,0,0a2.36,2.36,0,0,0,.76-2.56,2.4,2.4,0,0,0-2-1.75A.56.56,0,0,1,42,28.9a19.92,19.92,0,0,1-1.81-3.23,2.52,2.52,0,0,0-1.52-1.37,4.54,4.54,0,0,0-1.75-.22l-.46,0-1.12.05a.82.82,0,0,1-.82-.48c-.39-.7-.79-1.41-1.19-2.09-.22-.39-.45-.78-.67-1.18a2,2,0,0,0-1.2-.94,2.92,2.92,0,0,0-1.44,0,.42.42,0,0,1-.53-.24c-.59-1.05-1.2-2.11-1.79-3.14l-.5-.87a.81.81,0,0,0-1.12-.41,1,1,0,0,0-.63.56,1,1,0,0,0,.11.82l.44.76c.59,1,1.21,2.12,1.82,3.17a.48.48,0,0,1-.07.68,1.38,1.38,0,0,0-.28.37,2.16,2.16,0,0,0-.09,2.47c.17.27.32.54.47.8l.18.32,0,.09-.06.08-.5.62a15.7,15.7,0,0,0-1,1.36,15,15,0,0,0-.85,1.51l-.36.68-.05.09h-.09a2.32,2.32,0,0,0-2.44,1.37,2.42,2.42,0,0,0,.62,3l.08.08,0,.11c-.31.58-.61,1.05-.9,1.5A12.41,12.41,0,0,0,21.23,37.44Zm.66,8.76a8.93,8.93,0,0,1-1.16-.11L20.18,46l-.12,0c-.79-.25-1-.63-.77-1.4a5.36,5.36,0,0,1,2.14-3.21,7.25,7.25,0,0,0,1.77-1.91c.14-.2,0-.28,0-.31a.2.2,0,0,0-.14,0,.3.3,0,0,0-.17.14,8.44,8.44,0,0,1-1.79,1.9,1.06,1.06,0,0,1-.3.16l-.25.07.05-.25a12.81,12.81,0,0,1,1.8-4.84c.35-.62.75-1.33,1.23-2.32l.05-.1.11,0,1.69.3c1.33.23,2.58.46,3.86.64a34.44,34.44,0,0,0,3.7.3,31.82,31.82,0,0,0,5.74-.52c1-.16,2.06-.34,3.07-.51l.56-.1.37-.09.18-.05.11,0,.06.09c.87,1.23,3.07,5.19,3.09,7.27v.27L46,41.33l-.07,0-.12-.07a9.5,9.5,0,0,0-2.23-1.12.37.37,0,0,0-.27,0,.22.22,0,0,0-.08.11c0,.07-.06.18.22.28a7.29,7.29,0,0,1,2.91,1.72,5.65,5.65,0,0,1,1.29,2.51.75.75,0,0,1-.53,1,5.23,5.23,0,0,1-2,.37H44.8c-1.73,0-3.51,0-5.27-.07a113.93,113.93,0,0,0-11.44,0c-2.1.12-4.15.21-6.09.27Zm1.18-7.39a.47.47,0,0,1,.3.1.5.5,0,0,1,.08.74,7.23,7.23,0,0,1-1.85,2,5,5,0,0,0-2,3c-.18.6-.07.81.55,1l.07,0,.57.07a7.07,7.07,0,0,0,1.21.11c1.94-.06,4-.15,6.08-.27a114.75,114.75,0,0,1,11.48.05c1.74.07,3.52.07,5.25.07h.26A4.8,4.8,0,0,0,47,45.39c.34-.14.43-.3.35-.61a5.37,5.37,0,0,0-1.21-2.37,7,7,0,0,0-2.8-1.65c-.49-.18-.47-.49-.41-.67a.48.48,0,0,1,.25-.29.64.64,0,0,1,.51,0,9.91,9.91,0,0,1,2.21,1.1c-.19-1.91-1.94-5.26-3-6.71l-.07,0-.41.1-.56.09c-1,.18-2,.35-3.07.51a31.42,31.42,0,0,1-5.8.53,35.43,35.43,0,0,1-3.74-.3c-1.28-.19-2.54-.41-3.86-.65l-1.57-.28c-.46.94-.85,1.63-1.19,2.23A12.24,12.24,0,0,0,21,40.87a7.77,7.77,0,0,0,1.66-1.79.65.65,0,0,1,.38-.27Zm9.75-4.05h-.17a39.3,39.3,0,0,1-7-.93l-.55-.1-.7-.13a2.07,2.07,0,0,1,.32-4.07,2.25,2.25,0,0,1,.58.07l.19,0a42.08,42.08,0,0,0,7.75.83c1.47,0,3-.19,4.42-.34l.26,0c.87-.09,1.76-.23,2.61-.36l1.36-.2a1.73,1.73,0,0,1,1.3.41A2,2,0,0,1,44,31.33a2.09,2.09,0,0,1-.45,1.56,2.21,2.21,0,0,1-1.52.78c-.52,0-1,.15-1.56.25l-.57.11A43.31,43.31,0,0,1,32.82,34.76Zm-.16-.31a42.92,42.92,0,0,0,7.2-.72l.57-.11A16,16,0,0,1,42,33.36a1.86,1.86,0,0,0,1.31-.67A1.75,1.75,0,0,0,43,30.18,1.44,1.44,0,0,0,42,29.84L40.6,30c-.86.13-1.75.26-2.63.36l-.26,0c-1.46.15-3,.32-4.45.34a42.53,42.53,0,0,1-7.8-.83l-.2,0a1.86,1.86,0,0,0-.51-.06,1.76,1.76,0,0,0-.26,3.46c.22.05.45.09.68.12l.56.11a39.5,39.5,0,0,0,6.93.92Zm.47-4.37a23,23,0,0,1-3.13-.2l-2.79-.38-1.08-.16-.17,0-.09,0-.19,0,.08-.18a10.81,10.81,0,0,1,2.43-3.68l.14-.14,1.23,2.13-.16.07-.14.06a1.33,1.33,0,0,0-.24.11,6,6,0,0,0-.67.52.11.11,0,0,0-.05.09.26.26,0,0,0,.07.15.24.24,0,0,0,.15.06.09.09,0,0,0,.08,0,3,3,0,0,1,1.72-.77,5.45,5.45,0,0,0,1.31-.48,9,9,0,0,1,.85-.36,12.81,12.81,0,0,1,1.77-.46,1.87,1.87,0,0,1,1.15.2c.46.22,1,.43,1.66.69a.34.34,0,0,0,.26,0,.19.19,0,0,0,.09-.12c0-.07,0-.17-.27-.27s-.85-.32-1.21-.47L35.12,26l-.34-.15-.15-.06.58-1.28h.89a19.18,19.18,0,0,1,2,0,2.11,2.11,0,0,1,1.76,1.32,18.22,18.22,0,0,0,1.65,3,.69.69,0,0,1,0,.1.09.09,0,0,0,0,.05l0,.17-.17,0-.38.06c-.26,0-.53.09-.8.12l-1,.13c-1,.13-2,.27-2.94.38A29.92,29.92,0,0,1,33.13,30.08Zm-7-1h.05l1.08.16,2.79.39a25.83,25.83,0,0,0,6.28,0c1-.11,2-.25,2.93-.38l1-.13L41,29l.17,0A19.38,19.38,0,0,1,39.57,26a1.79,1.79,0,0,0-1.5-1.13,18.42,18.42,0,0,0-2,0h-.7l-.37.81.21.09.8.35c.35.15.77.32,1.19.46s.55.36.46.66a.48.48,0,0,1-.24.31.62.62,0,0,1-.51,0c-.69-.26-1.21-.47-1.68-.7a1.57,1.57,0,0,0-1-.18,14.23,14.23,0,0,0-1.73.45c-.27.1-.55.23-.82.35a6.21,6.21,0,0,1-1.39.51,2.74,2.74,0,0,0-1.54.67.43.43,0,0,1-.31.14.51.51,0,0,1-.36-.15.53.53,0,0,1-.17-.37.45.45,0,0,1,.14-.32,5.63,5.63,0,0,1,.72-.54,1.3,1.3,0,0,1,.26-.14l-.85-1.48A10.77,10.77,0,0,0,26.12,29Zm4.05-1.79a.46.46,0,0,1-.34-.18c-.75-1.3-1.51-2.61-2.21-3.84a1.53,1.53,0,0,1,0-1.43,3.5,3.5,0,0,1,3.16-2h0a1.82,1.82,0,0,1,1.65,1c.69,1.25,1.42,2.49,2.13,3.7a.6.6,0,0,1,0,.71l-.08.11a6.59,6.59,0,0,1-.42.54.71.71,0,0,1-.38.21,10.59,10.59,0,0,0-2.15.79,8.66,8.66,0,0,1-1.08.38l-.16.05Zm0-.3Zm.59-6.88a3.23,3.23,0,0,0-2.88,1.84,1.27,1.27,0,0,0,0,1.16c.7,1.23,1.45,2.55,2.21,3.84a.11.11,0,0,0,.06,0l.15,0a8.36,8.36,0,0,0,1-.37,10.7,10.7,0,0,1,2.22-.81.42.42,0,0,0,.22-.12c.14-.16.27-.34.4-.51l.08-.11a.28.28,0,0,0,0-.37c-.71-1.21-1.44-2.46-2.13-3.71A1.51,1.51,0,0,0,30.74,20.06Zm-2.42.11-1.45-2.52-1-1.73a.46.46,0,0,1,.2-.71.67.67,0,0,1,.47-.12.56.56,0,0,1,.31.27l1.48,2.57.34.6.35.61.27.47Zm-1.88-4.78a.44.44,0,0,0-.21.09c-.18.11-.17.14-.09.29.34.57.67,1.15,1,1.73l1.29,2.24.43-.25-.11-.19-.35-.62-.34-.59c-.5-.86-1-1.72-1.48-2.58,0-.07-.08-.11-.12-.11Z"/><path class="cls-2" d="M26.84,28.25c.07.11.15.18.14.24s-.1.1-.15.16-.13-.11-.14-.17S26.77,28.35,26.84,28.25Z"/><path class="cls-2" d="M26.82,28.87l-.11-.12a.08.08,0,0,0,0,0,.33.33,0,0,1-.13-.23.32.32,0,0,1,.11-.24l.07-.08.13-.19.12.2.07.09a.37.37,0,0,1,.1.25.35.35,0,0,1-.16.21l0,0Z"/><path class="cls-2" d="M27.79,27.07c-.07-.11-.16-.18-.15-.23s.1-.11.15-.17.14.11.14.17S27.86,27,27.79,27.07Z"/><path class="cls-2" d="M27.79,27.35l-.13-.19a.35.35,0,0,0-.06-.09.34.34,0,0,1-.11-.25.35.35,0,0,1,.15-.22s0,0,0,0l.11-.11.11.12,0,0a.35.35,0,0,1,.15.22.34.34,0,0,1-.11.25l-.06.08Z"/><path class="cls-2" d="M39.25,27.72c.07.12.14.19.14.25s-.08.1-.13.15-.15-.1-.16-.16S39.18,27.84,39.25,27.72Z"/><path class="cls-2" d="M39.26,28.34l-.11-.1s0,0,0,0a.27.27,0,0,1,0-.47l.07-.09.13-.2.13.2.06.1a.4.4,0,0,1,.1.23.31.31,0,0,1-.14.23l0,0Z"/><path class="cls-2" d="M39.56,28.74c-.1.08-.17.16-.22.16a.21.21,0,0,1-.15-.15.2.2,0,0,1,.15-.16S39.46,28.67,39.56,28.74Z"/><path class="cls-2" d="M39.34,29.06h0a.36.36,0,0,1-.29-.31.3.3,0,0,1,.53-.2.27.27,0,0,0,.08.07l.16.12-.16.13-.08.06A.34.34,0,0,1,39.34,29.06Z"/><path class="cls-2" d="M39.77,27.33c-.08-.11-.16-.19-.15-.24s.11-.11.17-.16.12.11.12.16S39.84,27.22,39.77,27.33Z"/><path class="cls-2" d="M39.76,27.62l-.12-.2-.07-.1a.32.32,0,0,1-.1-.26c0-.1.1-.16.17-.21l0,0,.12-.11.1.12,0,0a.3.3,0,0,1,.13.23.36.36,0,0,1-.11.23.35.35,0,0,0-.06.09Z"/><path class="cls-2" d="M28,28.84c-.12.07-.18.14-.24.14s-.15-.11-.14-.14a.24.24,0,0,1,.15-.16C27.85,28.67,27.91,28.76,28,28.84Z"/><path class="cls-2" d="M27.78,29.13h0c-.11,0-.2-.12-.22-.14a.24.24,0,0,1-.05-.19.38.38,0,0,1,.28-.27c.11,0,.18,0,.25.11l.09.08.19.14-.2.12L28,29A.34.34,0,0,1,27.78,29.13Z"/><path class="cls-2" d="M27.27,28c-.08-.12-.16-.19-.15-.25s.1-.12.17-.14.12.09.12.14S27.34,27.91,27.27,28Z"/><path class="cls-2" d="M27.27,28.31l-.13-.2a.86.86,0,0,0-.07-.1.3.3,0,0,1-.1-.25c0-.15.18-.24.27-.27a.22.22,0,0,1,.18,0s.15.12.15.25a.37.37,0,0,1-.1.23.86.86,0,0,0-.07.1Z"/><path class="cls-2" d="M40.87,28.66c-.12.08-.19.16-.24.15s-.12-.11-.13-.17.09-.13.14-.13S40.76,28.59,40.87,28.66Z"/><path class="cls-2" d="M40.64,29h0a.37.37,0,0,1-.26-.3.27.27,0,0,1,.07-.19.32.32,0,0,1,.24-.11.36.36,0,0,1,.22.11.71.71,0,0,0,.09.07l.18.13-.19.12-.09.07A.37.37,0,0,1,40.64,29Z"/><path class="cls-2" d="M40,27.73c.08.11.15.17.15.23s-.08.11-.12.16-.16-.09-.17-.14S40,27.85,40,27.73Z"/><path class="cls-2" d="M40.07,28.34l-.12-.1-.05,0a.34.34,0,0,1-.17-.2.33.33,0,0,1,.09-.26l.06-.1.13-.21.14.2.06.09a.4.4,0,0,1,.12.22.32.32,0,0,1-.12.23l0,0Z"/><path class="cls-2" d="M28.18,27.61c-.09.08-.15.16-.21.16a.19.19,0,0,1-.15-.15.22.22,0,0,1,.14-.16C28,27.45,28.08,27.54,28.18,27.61Z"/><path class="cls-2" d="M28,27.93h0a.31.31,0,0,1,0-.62c.11,0,.18.05.25.11l.08.07.17.11-.16.13-.08.07A.34.34,0,0,1,28,27.93Z"/><path class="cls-2" d="M39.56,26c-.1.08-.16.16-.22.17s-.15-.09-.15-.13a.26.26,0,0,1,.13-.17C39.38,25.81,39.45,25.89,39.56,26Z"/><path class="cls-2" d="M39.33,26.27a.3.3,0,0,1-.2-.1A.22.22,0,0,1,39,26a.38.38,0,0,1,.25-.3.32.32,0,0,1,.26.09l.09.06.2.12-.18.14a.27.27,0,0,0-.08.07.48.48,0,0,1-.22.12Z"/><path class="cls-2" d="M39,26.92c.1-.07.16-.14.23-.15s.12.1.11.15a.21.21,0,0,1-.14.15S39,27,39,26.92Z"/><path class="cls-2" d="M39.14,27.23c-.09,0-.15-.07-.21-.12L38.86,27l-.16-.12.16-.12.08-.06a.42.42,0,0,1,.21-.13.19.19,0,0,1,.17.06.37.37,0,0,1,.13.28.39.39,0,0,1-.27.27Z"/><path class="cls-2" d="M28.48,22.55a2,2,0,0,1,1.61-1.77,1.56,1.56,0,0,1,1.82.79c.36.7.78,1.37,1.17,2.05l.12.22a.26.26,0,0,1-.11.37.24.24,0,0,1-.37-.1c-.26-.43-.5-.86-.75-1.29l-.56-1a1,1,0,0,0-1.16-.53,1.44,1.44,0,0,0-1.11.89.79.79,0,0,0,.05.77l1.32,2.3a.42.42,0,0,1,.07.25c0,.09-.13.21-.2.22a.39.39,0,0,1-.31-.13c-.49-.83-1-1.67-1.44-2.52A1.94,1.94,0,0,1,28.48,22.55Z"/><path class="cls-2" d="M30.35,25.91a.54.54,0,0,1-.42-.21c-.52-.88-1-1.71-1.44-2.52a1.57,1.57,0,0,1-.13-.42l0-.17v-.05a2.18,2.18,0,0,1,1.73-1.91,1.7,1.7,0,0,1,2,.87c.26.48.54,1,.81,1.42l.36.63,0,.05a1,1,0,0,1,.1.18.43.43,0,0,1-.76.41c-.21-.36-.42-.72-.62-1.08l-.13-.21c-.08-.16-.17-.31-.26-.46l-.29-.52a.8.8,0,0,0-1-.45,1.29,1.29,0,0,0-1,.8.67.67,0,0,0,0,.63c.48.82.91,1.58,1.32,2.3a.47.47,0,0,1,.08.38c0,.11-.16.31-.33.32Zm-1.72-3.37a.94.94,0,0,1,0,.16,1.06,1.06,0,0,0,.09.33c.45.81.92,1.63,1.44,2.51a.42.42,0,0,0,.15.06.52.52,0,0,0,.08-.11.53.53,0,0,0-.06-.13c-.41-.73-.84-1.48-1.32-2.3a1,1,0,0,1-.06-.92,1.61,1.61,0,0,1,1.23-1,1.12,1.12,0,0,1,1.33.61l.29.51.26.46.13.22c.2.35.41.72.62,1.07,0,.09.1.08.16,0s.1-.06.05-.17a1.09,1.09,0,0,0-.08-.15l0-.06-.36-.63c-.27-.46-.56-.94-.81-1.42a1.41,1.41,0,0,0-1.65-.72A1.86,1.86,0,0,0,28.63,22.54Z"/></g></g></svg>