<svg xmlns="http://www.w3.org/2000/svg" viewBox="0 0 20.98 21"><defs><style>.cls-1{fill:#285985;}</style></defs><title>instagram</title><g id="Capa_2" data-name="Capa 2"><g id="Capa_1-2" data-name="Capa 1"><path class="cls-1" d="M10.49,21H7.23c-.48,0-1,0-1.43-.07a7.23,7.23,0,0,1-2.63-.66A5.22,5.22,0,0,1,.84,18a6.57,6.57,0,0,1-.68-2.06A13.91,13.91,0,0,1,0,13.6c0-2.06,0-4.13,0-6.19,0-.59,0-1.18.08-1.77A6.71,6.71,0,0,1,.71,3.23,5.26,5.26,0,0,1,3.17.76a7,7,0,0,1,2-.61A12.47,12.47,0,0,1,6.91,0l3.95,0,3.22,0A11.89,11.89,0,0,1,16.15.2a6.2,6.2,0,0,1,2.12.8,5.1,5.1,0,0,1,1.79,1.9,6.4,6.4,0,0,1,.76,2.2,10.85,10.85,0,0,1,.12,1.51q.06,3.33,0,6.64,0,.87-.06,1.74a7.73,7.73,0,0,1-.54,2.52A5.16,5.16,0,0,1,18,20.09a6.46,6.46,0,0,1-2.14.73,11.2,11.2,0,0,1-1.83.15l-3.58,0Zm.15-19.12H7.55c-.39,0-.79,0-1.18,0-.13,0-.27,0-.4,0l-.69.11a3.9,3.9,0,0,0-1.41.46,4.43,4.43,0,0,0-.82.6,3.67,3.67,0,0,0-1,2A15.8,15.8,0,0,0,1.9,6.93c0,.5,0,1,0,1.51,0,1.33,0,2.66,0,4,0,.41,0,.82,0,1.23s0,.66,0,1l0,.37a8.53,8.53,0,0,0,.22,1.12,2.66,2.66,0,0,0,.28.82,4,4,0,0,0,.67,1A3.49,3.49,0,0,0,5,18.87,9.62,9.62,0,0,0,6,19c.53,0,1.07.11,1.6.11h5.63c.46,0,.93,0,1.39-.05L15,19l.68-.11A3.64,3.64,0,0,0,17,18.55a4.13,4.13,0,0,0,1-.68,3.56,3.56,0,0,0,1-2.08,14.61,14.61,0,0,0,.17-1.86c0-.47,0-.94,0-1.41,0-1.25,0-2.5,0-3.74,0-.69,0-1.37,0-2a11.68,11.68,0,0,0-.15-1.45,4.19,4.19,0,0,0-.48-1.42A3.8,3.8,0,0,0,17.78,3a3.72,3.72,0,0,0-1.4-.78A6.77,6.77,0,0,0,15.2,2c-.73-.09-1.46-.11-2.19-.13S11.43,1.86,10.64,1.86Z"/><path class="cls-1" d="M10.46,5.09a5.76,5.76,0,0,1,2,.35,5.06,5.06,0,0,1,1.78,1.17,5.48,5.48,0,0,1,1.21,1.76,5,5,0,0,1,.38,1.52A5.77,5.77,0,0,1,15.65,12a5.38,5.38,0,0,1-1.3,2.27,5.06,5.06,0,0,1-3,1.59,5.62,5.62,0,0,1-2.73-.23,5.29,5.29,0,0,1-1.77-1.05,5.1,5.1,0,0,1-1.55-2.32,5.49,5.49,0,0,1-.25-2.09A5.4,5.4,0,0,1,7.73,5.8a5,5,0,0,1,2-.66ZM14,10.47c0-.08,0-.19,0-.3l0-.23a3.48,3.48,0,0,0-1.4-2.3,3.41,3.41,0,0,0-2-.68A3.3,3.3,0,0,0,9,7.28a3.44,3.44,0,0,0-2.05,3.07,3.18,3.18,0,0,0,.46,1.9A3.53,3.53,0,0,0,10.16,14,3.52,3.52,0,0,0,14,10.47Z"/><path class="cls-1" d="M16.08,6.13a1.26,1.26,0,0,1-.94-.45,1.18,1.18,0,0,1-.33-.82,1.24,1.24,0,0,1,.4-.9A1.19,1.19,0,0,1,17,4a1.19,1.19,0,0,1-.15,1.79A1.17,1.17,0,0,1,16.08,6.13Z"/></g></g></svg>