<svg xmlns="http://www.w3.org/2000/svg" viewBox="0 0 66 66"><defs><style>.cls-1{fill:#4cac37;}.cls-2{fill:#fff;}</style></defs><title>lata</title><g id="Capa_2" data-name="Capa 2"><g id="Capa_1-2" data-name="Capa 1"><circle class="cls-1" cx="33" cy="33" r="33"/><path class="cls-2" d="M26.16,49.72c-1.49-.88-1.62-2-.37-3.24a1,1,0,0,0,.21-.66q0-7.07,0-14.13a1.13,1.13,0,0,0-.36-.72,1.81,1.81,0,0,1-.6-2,1.54,1.54,0,0,1,1.54-1.14c5,0,10,0,15,0a1.51,1.51,0,0,1,1.57,1.2A1.76,1.76,0,0,1,42.54,31a1.12,1.12,0,0,0-.35.73q0,7.06,0,14.13a.9.9,0,0,0,.21.59c1.28,1.24,1.21,2.24-.26,3.27Zm.93-3.42H28c3.64,0,7.28,0,10.93,0,.41,0,1.11-.29,1.08.55s-.69.55-1.12.55q-6,0-12,0c-.41,0-.86,0-.78.6,0,.23.48.4.75.57.07.05.19,0,.29,0h14c.19,0,.41.06.56,0a1,1,0,0,0,.49-.55.68.68,0,0,0-.37-.55c-.66-.11-.69-.57-.69-1.13q0-7.51,0-15c0-.58,0-1.05.69-1.21a.74.74,0,0,0,.35-.62c0-.19-.34-.34-.55-.46s-.23,0-.35,0H26.94c-.12,0-.27-.05-.35,0a5.9,5.9,0,0,0-.57.55,2.83,2.83,0,0,0,.55.59c.17.1.42,0,.63,0H38.85a1.51,1.51,0,0,1,.64,0c.2.1.48.34.47.5s-.25.44-.45.57-.37,0-.56,0H27.09Z"/><path class="cls-2" d="M37.85,22.73a3.88,3.88,0,0,1-3.72,3.94,4,4,0,0,1-3.8-4.13,3.77,3.77,0,1,1,7.52.19Zm-1.05-.09a2.71,2.71,0,1,0-5.41,0,2.87,2.87,0,0,0,2.66,2.86A2.83,2.83,0,0,0,36.8,22.64Z"/><path class="cls-2" d="M34.11,42.81c-1,0-2,0-2.94,0-.51,0-.79-.15-.86-.76a1.56,1.56,0,0,0-1.44-1.53.72.72,0,0,1-.7-.86c0-.33,0-.66,0-1,0-1.27,0-1.26,1.11-1.72a1.59,1.59,0,0,0,1-1.44c0-.57.31-.74.79-.74q3,0,6,0c.46,0,.69.18.75.7a1.64,1.64,0,0,0,1.5,1.59c.49.06.65.32.63.81s0,1.22,0,1.84c0,.47-.13.75-.63.82A1.56,1.56,0,0,0,37.9,42c-.1.61-.36.81-.91.79C36,42.78,35.07,42.81,34.11,42.81Zm4.83-4.66a3,3,0,0,1-2.08-2.23h-5.5a3.08,3.08,0,0,1-1.81,2.15c-.17.07-.31.47-.3.71a.9.9,0,0,0,.32.71,3.1,3.1,0,0,1,1.71,1.85.68.68,0,0,0,.53.32c1.54,0,3.07,0,4.6,0,.17,0,.46-.13.5-.27a3,3,0,0,1,2-2Z"/><path class="cls-2" d="M34.34,15.37a7,7,0,0,0-7.07,7.08,7.53,7.53,0,0,0,1,3.94c.48.3.89-.14,1-.62a6.22,6.22,0,0,1-.87-3.07,5.92,5.92,0,0,1,5.72-6.12,5.84,5.84,0,0,1,5.62,6,6.3,6.3,0,0,1-1.07,3.52,1.17,1.17,0,0,0,0,.32.74.74,0,0,0,1,.26,7.73,7.73,0,0,0,1.16-3.92C41,18.7,38.11,15.46,34.34,15.37Z"/></g></g></svg>