<svg xmlns="http://www.w3.org/2000/svg" viewBox="0 0 66 66"><defs><style>.cls-1{fill:#4cac37;}.cls-2{fill:#fff;}</style></defs><title>limpieza</title><g id="Capa_2" data-name="Capa 2"><g id="Capa_1-2" data-name="Capa 1"><circle class="cls-1" cx="33" cy="33" r="33"/><path class="cls-2" d="M37.67,23.15l.11-.31a3.05,3.05,0,0,0,.21-.7,5.25,5.25,0,0,0,0-.79c0-.11,0-.22,0-.32,0-1.69-.08-1.82-1.63-2l-.21-.81q-.33-1.27-.69-2.55a3.3,3.3,0,0,0-.31-.69l-.15-.3,0-.11H31l0,.14-.33,1.06c-.27.89-.55,1.8-.8,2.71-.14.55-.31.68-.76.6a1,1,0,0,0-.8.16,1.06,1.06,0,0,0-.26.91,17.1,17.1,0,0,1,0,1.76,1.32,1.32,0,0,0,.22,1,.74.74,0,0,0,.36.19,21.25,21.25,0,0,0-4.19,8.55,35.13,35.13,0,0,0,.07,15.25A3.77,3.77,0,0,0,27,50H39.25a3.75,3.75,0,0,0,2.65-3.38q.09-.82.21-1.65c.11-.8.22-1.62.29-2.43a31.4,31.4,0,0,0-1.49-13.33A22,22,0,0,0,37.67,23.15ZM31.73,16s.14-.11.21-.15l.13-.08h0c2.14-.12,2.14-.12,2.69,1.93.09.37.19.74.29,1.13l.06.25H30.87l.16-.59C31.26,17.63,31.48,16.81,31.73,16ZM29.2,21.82V20.34h7.58v1.48ZM25.36,40.44a9.91,9.91,0,0,1,1.43.57,6.3,6.3,0,0,0,6,.14,6,6,0,0,1,6.08,0,5.49,5.49,0,0,0,1.6.54l.68.17a.93.93,0,0,1,0,.29L41,43.42c-.13,1.18-.27,2.41-.48,3.59a2,2,0,0,1-2.15,1.76H27.82a1.93,1.93,0,0,1-2.11-1.7c-.28-1.61-.53-3.26-.77-4.85-.1-.63-.19-1.26-.29-1.9l.13-.09Zm15.34,0A7.08,7.08,0,0,1,39.19,40a7.17,7.17,0,0,0-3.33-.87,7.31,7.31,0,0,0-3.32.85,5.38,5.38,0,0,1-5.23,0,11,11,0,0,0-1.78-.67l-.82-.27c0-.39.06-.78.09-1.19.07-1.06.14-2.16.3-3.24A22,22,0,0,1,29,24.45,2.71,2.71,0,0,1,31.78,23a18.21,18.21,0,0,0,2.21.05c.5,0,1,0,1.53,0a1.26,1.26,0,0,1,.81.38A22.37,22.37,0,0,1,41,34.76c.18,1.35.26,2.73.33,4.07,0,.59.07,1.17.11,1.75l-.09.08Z"/><path class="cls-2" d="M46.57,19.54a2.68,2.68,0,0,0-2,.77,2.73,2.73,0,0,0-.84,1.94,2.75,2.75,0,0,0,2.69,2.83h.06a2.8,2.8,0,0,0,2.76-2.72A2.81,2.81,0,0,0,46.57,19.54Zm1.49,2.68a1.54,1.54,0,0,1-.45,1.12,1.52,1.52,0,0,1-1.09.48h0a1.56,1.56,0,0,1-1.09-2.65,1.5,1.5,0,0,1,1.09-.45h0A1.53,1.53,0,0,1,48.06,22.22Z"/><path class="cls-2" d="M44.37,25h0a1.82,1.82,0,0,0-1.8,1.75,1.83,1.83,0,0,0,1.75,1.89h.07a1.74,1.74,0,0,0,1.21-.48,1.79,1.79,0,0,0,.55-1.31,1.81,1.81,0,0,0-.53-1.33A1.71,1.71,0,0,0,44.37,25Zm.69,1.69v.16l-.21.17c-.15.13-.34.3-.45.3h0a1,1,0,0,1-.6-.57.42.42,0,0,1,.1-.4.51.51,0,0,1,.38-.16h.08a1.11,1.11,0,0,1,.51.33Z"/><path class="cls-2" d="M20.93,19.84a3.81,3.81,0,0,0-2.72,1.1,3.77,3.77,0,0,0-1.1,2.67,3.85,3.85,0,0,0,1.15,2.67,3.69,3.69,0,0,0,2.59,1.09h0a3.8,3.8,0,0,0,3.75-3.76A3.71,3.71,0,0,0,20.93,19.84Zm2.5,3.69a2.53,2.53,0,0,1-2.5,2.61h-.05a2.57,2.57,0,0,1-1.77-.72,2.51,2.51,0,0,1-.77-1.8,2.57,2.57,0,0,1,.74-1.83A2.52,2.52,0,0,1,20.87,21h0A2.58,2.58,0,0,1,23.43,23.53Z"/><path class="cls-2" d="M20.88,30.27h0a1.82,1.82,0,0,0-1.28.56,1.8,1.8,0,0,0-.51,1.3,1.82,1.82,0,0,0,1.79,1.76h0a1.8,1.8,0,0,0,1.83-1.81,1.75,1.75,0,0,0-.53-1.28A1.79,1.79,0,0,0,20.88,30.27Zm.54,1.81c0,.1-.16.31-.29.46s-.11.14-.17.2H20.8l-.17-.21c-.13-.15-.31-.36-.3-.46a.9.9,0,0,1,.56-.55h0A.92.92,0,0,1,21.42,32.08Z"/><path class="cls-2" d="M38.87,33.05a11.2,11.2,0,0,0-.44-2.13,11.68,11.68,0,0,0-1.61-3.19,1.54,1.54,0,0,0-1.41-.7,1.76,1.76,0,0,0-1.34,1.21,2.27,2.27,0,0,0-.22.81c0,.28,0,.55,0,.83a17.27,17.27,0,0,0,.06,2.59,7.6,7.6,0,0,0,1.84,4.32,2,2,0,0,0,1.39.72,1.24,1.24,0,0,0,.27,0,1.76,1.76,0,0,0,1.2-1.33,9.17,9.17,0,0,0,.31-1.44c0-.22.07-.44.11-.67V34C39,33.67,38.91,33.36,38.87,33.05ZM37.45,36c-.08.22-.17.36-.26.39s-.26-.06-.45-.24a1.51,1.51,0,0,1-.32-.37,9.67,9.67,0,0,1-1.36-6.47l.52-.83.16.09a1.86,1.86,0,0,1,.57.43,5.3,5.3,0,0,1,.79,1.58c.23.82.41,1.66.58,2.46.06.31.13.62.19.92s-.09.47-.13.69A8.43,8.43,0,0,1,37.45,36Z"/><path class="cls-2" d="M46.69,21l-.06,0h-.07a1.47,1.47,0,0,0-1.09.47,1.06,1.06,0,0,0-.31.84.84.84,0,0,0,.4.6.22.22,0,0,0,.13,0,.87.87,0,0,0,.51-.28,4.11,4.11,0,0,0,.63-.61c.1-.12.31-.4.23-.64A.8.8,0,0,0,46.69,21Z"/><path class="cls-2" d="M21.24,21.61a1.35,1.35,0,0,0-.56-.18h0A1.89,1.89,0,0,0,19,23.06a1,1,0,0,0,.18.55,1.62,1.62,0,0,1,.1.18l.11.25.36-.31.35-.29.39-.37q.27-.27.54-.51a1.62,1.62,0,0,1,.31-.21l.36-.22.33-.21-.37-.14Z"/></g></g></svg>