<svg xmlns="http://www.w3.org/2000/svg" viewBox="0 0 77.61 42.9"><defs><style>.cls-1{fill:#4cac37;}</style></defs><title>logobanner</title><g id="Capa_2" data-name="Capa 2"><g id="Capa_1-2" data-name="Capa 1"><path class="cls-1" d="M19.11,10.72h0l-5.25.07-.95,5.82,4.16-.06a3.48,3.48,0,0,0,2.62-1.06,4.4,4.4,0,0,0,.92-3.4A1.54,1.54,0,0,0,19.11,10.72Z"/><path class="cls-1" d="M35.86,10.36l-4.58.06-.84,5.18,4.49,0A2.87,2.87,0,0,0,38,12.88h0A2.22,2.22,0,0,0,37.7,11,2.29,2.29,0,0,0,35.86,10.36Z"/><path class="cls-1" d="M74.37,0H9A4,4,0,0,0,5.11,3.18l-5,24.5a4.32,4.32,0,0,0,4.24,5.1H16.89a6.06,6.06,0,0,1,5.46,3.45l2.6,5.5a2.05,2.05,0,0,0,3.37.51l6.93-7.52a6.06,6.06,0,0,1,4.44-1.94H68.54a3.78,3.78,0,0,0,3.72-3.1L77.55,3.89A3.24,3.24,0,0,0,74.37,0ZM24.55,13.92c-.62,3.92-3.5,6.3-7.7,6.35l-4.58.05-.84,5.19a2,2,0,0,1-1.89,1.64H9.26a1.73,1.73,0,0,1-1.72-2l.11-.67h0L10.23,8.72A1.93,1.93,0,0,1,12.12,7.1L19,7h.11a5.43,5.43,0,0,1,4.5,1.89A6,6,0,0,1,24.55,13.92Zm17.53-.78a6.46,6.46,0,0,1-4.3,5.46,5.12,5.12,0,0,1,.49,1l1.62,4.52a1.85,1.85,0,0,1-.1,1.77,2.37,2.37,0,0,1-2,.79h0a2.3,2.3,0,0,1-2.09-1.74L34.41,21a3,3,0,0,0-.79-1.44,3.36,3.36,0,0,0-1.75-.29l-2,0-1,6A2,2,0,0,1,27,26.78h-.29a1.75,1.75,0,0,1-1.72-2l.25-1.6L27.7,8.22a2,2,0,0,1,1.84-1.49l7.16-.09h.11a5.4,5.4,0,0,1,4.31,1.71A5.61,5.61,0,0,1,42.08,13.14Zm7.68-4.7-3,15.6h0l-.15.79a2,2,0,0,1-1.89,1.63h-.3a1.75,1.75,0,0,1-1.27-.55,1.79,1.79,0,0,1-.47-1.36L45.84,8.1a2,2,0,0,1,1.88-1.58H48a1.73,1.73,0,0,1,1.33.56A1.77,1.77,0,0,1,49.76,8.44Zm17.63.47h0l-.59.75-5.29,6.42,3.2,6,.69,1.35a1.88,1.88,0,0,1-1.24,2.62l-.27.07A2.11,2.11,0,0,1,61.42,25l-.27-.52-2.59-5.18-4.79,6.21a3.14,3.14,0,0,1-.6.61,1.94,1.94,0,0,1-1.05.31,1.87,1.87,0,0,1-.8-.18l-.22-.1A1.72,1.72,0,0,1,50.18,25a1.7,1.7,0,0,1,.25-1.4l6.18-7.52L53,9.09a1.9,1.9,0,0,1,0-1.6,1.88,1.88,0,0,1,1.22-1l.27-.07a2.14,2.14,0,0,1,2.46,1.15l2.63,5.34,4.62-5.86a2.1,2.1,0,0,1,1.43-.86,1.83,1.83,0,0,1,.91.17l.22.1a1.64,1.64,0,0,1,.89,1.07A1.61,1.61,0,0,1,67.39,8.91Z"/></g></g></svg>