<svg xmlns="http://www.w3.org/2000/svg" viewBox="0 0 50.03 27.65"><defs><style>.cls-1{fill:#fff;}</style></defs><title>logo</title><g id="Capa_2" data-name="Capa 2"><g id="Capa_1-2" data-name="Capa 1"><path class="cls-1" d="M12.31,6.91h0L8.92,7,8.31,10.7l2.68,0A2.26,2.26,0,0,0,12.68,10a2.83,2.83,0,0,0,.59-2.19A1,1,0,0,0,12.31,6.91Z"/><path class="cls-1" d="M23.11,6.68l-2.95,0-.54,3.35,2.9,0a1.84,1.84,0,0,0,2-1.72h0a1.4,1.4,0,0,0-.2-1.2A1.46,1.46,0,0,0,23.11,6.68Z"/><path class="cls-1" d="M47.94,0H5.8A2.58,2.58,0,0,0,3.29,2.05L.05,17.84a2.78,2.78,0,0,0,2.73,3.29h8.11a3.88,3.88,0,0,1,3.51,2.23l1.68,3.54a1.32,1.32,0,0,0,2.17.32l4.47-4.84a3.9,3.9,0,0,1,2.86-1.25h18.6a2.45,2.45,0,0,0,2.4-2L50,2.51A2.08,2.08,0,0,0,47.94,0ZM15.83,9a4.7,4.7,0,0,1-5,4.09l-2.95,0-.54,3.35A1.25,1.25,0,0,1,6.15,17.5H6a1.13,1.13,0,0,1-1.11-1.3l.07-.43h0L6.59,5.62a1.24,1.24,0,0,1,1.22-1l4.4-.06h.07a3.52,3.52,0,0,1,2.91,1.21A4,4,0,0,1,15.83,9Zm11.29-.5A4.16,4.16,0,0,1,24.35,12a3.06,3.06,0,0,1,.32.63l1,2.91a1.19,1.19,0,0,1-.06,1.14,1.54,1.54,0,0,1-1.31.5h0A1.47,1.47,0,0,1,23,16.06l-.81-2.51a1.91,1.91,0,0,0-.51-.93,2.15,2.15,0,0,0-1.13-.18h-1.3l-.64,3.89a1.27,1.27,0,0,1-1.19.92h-.19A1.13,1.13,0,0,1,16.11,16l.17-1L17.85,5.3a1.26,1.26,0,0,1,1.19-1l4.61-.06h.07a3.51,3.51,0,0,1,2.79,1.1A3.66,3.66,0,0,1,27.12,8.47Zm4.95-3L30.12,15.49h0L30,16a1.27,1.27,0,0,1-1.21,1h-.2a1.16,1.16,0,0,1-.82-.35,1.15,1.15,0,0,1-.3-.88L29.55,5.22a1.27,1.27,0,0,1,1.21-1h.16a1.13,1.13,0,0,1,.86.36A1.1,1.1,0,0,1,32.07,5.44Zm11.37.3h0l-.38.48-3.41,4.14,2.06,3.88.45.87a1.22,1.22,0,0,1,0,1,1.24,1.24,0,0,1-.8.65l-.17.05a1.38,1.38,0,0,1-1.59-.76l-.17-.34-1.68-3.34-3.08,4a2.35,2.35,0,0,1-.39.39,1.27,1.27,0,0,1-.67.2,1.17,1.17,0,0,1-.52-.12l-.15-.07a1,1,0,0,1-.58-.7,1.06,1.06,0,0,1,.15-.9l4-4.85L34.14,5.86a1.23,1.23,0,0,1,.8-1.68l.18,0a1.38,1.38,0,0,1,1.58.74l1.7,3.44,3-3.78A1.36,1.36,0,0,1,42.3,4a1,1,0,0,1,.58.11l.14.06a1.07,1.07,0,0,1,.58.7A1.06,1.06,0,0,1,43.44,5.74Z"/></g></g></svg>