<svg xmlns="http://www.w3.org/2000/svg" viewBox="0 0 66 66"><defs><style>.cls-1{fill:#4cac37;}.cls-2{fill:#fff;}</style></defs><title>mascotas</title><g id="Capa_2" data-name="Capa 2"><g id="Capa_1-2" data-name="Capa 1"><circle class="cls-1" cx="33" cy="33" r="33"/><path class="cls-2" d="M43.44,28.16a.71.71,0,0,0-1,0c-1.7,1.7-4.8,2.63-8.74,2.63a17.92,17.92,0,0,1-9.56-2.72.71.71,0,0,0-1,.2.7.7,0,0,0,.2,1,18.91,18.91,0,0,0,10.35,3c4.32,0,7.78-1.09,9.75-3.06A.7.7,0,0,0,43.44,28.16Z"/><path class="cls-2" d="M49.32,38.45,46.47,27.07l-.76-1.57a.71.71,0,0,0-1.28.63l.68,1.36,2.82,11.25A4.44,4.44,0,0,1,46.82,42C45.39,43.7,42,45.73,33.69,45.73s-11.91-2-13.51-3.76a4.78,4.78,0,0,1-1.43-3.25L21.53,27.6l1.28-1.28a.71.71,0,0,0,0-1,.7.7,0,0,0-1,0l-1.57,1.56L17.35,38.45l0,.1a6.14,6.14,0,0,0,1.77,4.34c2.58,2.83,7.49,4.26,14.59,4.26s11.86-1.43,14.22-4.25A5.73,5.73,0,0,0,49.32,38.45Z"/><path class="cls-2" d="M33.69,44.31c1.57,0,2.66-.4,3.22-1.18a2.2,2.2,0,0,0,.3-1.89l-.07-.14c-2.34-3.9-3.15-3.9-3.45-3.9-1.69,0-3.62,3-4.17,3.9l-.1.17v.19S29.47,44.31,33.69,44.31Zm-.09-5.68a16.28,16.28,0,0,1,2.27,3.11.75.75,0,0,1-.11.56c-.16.22-.64.59-2.07.59-2.24,0-2.72-.89-2.82-1.27C31.74,40.23,33,38.77,33.6,38.63Z"/><path class="cls-2" d="M29.42,25.82c0-.71.93-.89,1.42-.89a2,2,0,0,1,1.08.28.69.69,0,0,1,.35.61.7.7,0,0,0,.37.62.71.71,0,0,0,.73,0,1.38,1.38,0,0,1,1.48-.22,2.16,2.16,0,0,1,1,1.76.72.72,0,0,0,1.43,0,3.6,3.6,0,0,0-1.73-3,2.57,2.57,0,0,0-2.09-.13,2.87,2.87,0,0,0-2.59-1.3c-1.64,0-2.84,1-2.84,2.32a.71.71,0,0,0,1.42,0Z"/><path class="cls-2" d="M25.87,26.53a.72.72,0,0,0,0-1.43,1.56,1.56,0,0,1-1.43-1.42c0-1.26,0-1.42,2.14-1.42a.71.71,0,0,0,.5-.21c.22-.22.38-.4.52-.57.44-.52.55-.64,2.53-.64a.72.72,0,0,0,.51-1.22c-.2-.19-.13-.74.22-1.09a.89.89,0,0,1,.77-.26,2.82,2.82,0,0,1,1.56.94.71.71,0,0,0,1-1,4.17,4.17,0,0,0-2.4-1.34,2.32,2.32,0,0,0-1.94.67,2.49,2.49,0,0,0-.74,1.91,2.86,2.86,0,0,0-2.59,1.12l-.25.28c-2.79.06-3.25.9-3.25,2.84A3,3,0,0,0,25.87,26.53Z"/><path class="cls-2" d="M33,21.55a.71.71,0,0,0,1.42,0c0-.35.5-.71,1.42-.71.49,0,.71.2.71,1.42a.72.72,0,0,0,1.43,0,.89.89,0,0,1,.71-1,1.39,1.39,0,0,1,1.5.57.81.81,0,0,1,0,.8,4,4,0,0,0-.6.51.71.71,0,0,0-.08.92.73.73,0,0,0,.9.22,2.31,2.31,0,0,0,.75-.6,1.37,1.37,0,0,1,1.21-.19.94.94,0,0,1,.57.86c0,.7,0,1.43-2.85,1.43a.71.71,0,0,0,0,1.42c2.22,0,4.27-.35,4.27-2.85a2.35,2.35,0,0,0-1.44-2.17,2.42,2.42,0,0,0-1.22-.16,2.93,2.93,0,0,0-.26-.83,2.76,2.76,0,0,0-3.09-1.31,2.3,2.3,0,0,0-.83.36,1.84,1.84,0,0,0-1.7-.87C34,19.41,33,20.49,33,21.55Z"/><path class="cls-2" d="M33,35.06a1.43,1.43,0,1,0-1.42,1.42A1.43,1.43,0,0,0,33,35.06Z"/><path class="cls-2" d="M36.53,35.06a1.42,1.42,0,1,0-1.42,1.42A1.42,1.42,0,0,0,36.53,35.06Z"/><path class="cls-2" d="M38,36.48a1.43,1.43,0,1,0,0,2.85c.78,0,.71-.64.71-1.42S38.74,36.48,38,36.48Z"/><path class="cls-2" d="M28.71,39.33a1.43,1.43,0,0,0,0-2.85c-.79,0-.71.64-.71,1.43S27.92,39.33,28.71,39.33Z"/></g></g></svg>