<svg xmlns="http://www.w3.org/2000/svg" viewBox="0 0 35 25"><defs><style>.cls-1{fill:#39b54a;}</style></defs><title>pagos</title><g id="Capa_2" data-name="Capa 2"><g id="Capa_1-2" data-name="Capa 1"><path class="cls-1" d="M30.81,0H4.19A4.2,4.2,0,0,0,0,4.19V20.81A4.2,4.2,0,0,0,4.19,25H30.81A4.2,4.2,0,0,0,35,20.81V4.19A4.2,4.2,0,0,0,30.81,0ZM34,20.81A3.19,3.19,0,0,1,30.81,24H4.19A3.19,3.19,0,0,1,1,20.81V10H34ZM34,6H1V4.19A3.19,3.19,0,0,1,4.19,1H30.81A3.19,3.19,0,0,1,34,4.19Z"/><rect class="cls-1" x="5.5" y="15.5" width="11" height="1"/></g></g></svg>