<svg xmlns="http://www.w3.org/2000/svg" viewBox="0 0 66 66"><defs><style>.cls-1{fill:#4cac37;}.cls-2{fill:#fff;}</style></defs><title>pan</title><g id="Capa_2" data-name="Capa 2"><g id="Capa_1-2" data-name="Capa 1"><circle class="cls-1" cx="33" cy="33" r="33"/><path class="cls-2" d="M25.93,28c.74-3.92,1.32-4.4,5.77-4.84,0-.18.07-.36.08-.55A2.53,2.53,0,0,1,34,20.14c.87-.16,1.78-.14,2.67-.24a2.94,2.94,0,0,0,1-.29c2.21-1.19,4.49-1.87,7-1.13a3.92,3.92,0,0,1,.6.23c2,.93,2.48,2.07,1.82,4.15a16.43,16.43,0,0,1-3,5.45c-2,2.43-4,4.85-6.16,7.1a59.75,59.75,0,0,1-9.25,8.07,20,20,0,0,1-3.74,2c-2.31.92-3.93.13-4.86-2.19a9.7,9.7,0,0,1,0-6.53c.3-1,.8-1.88,1.16-2.84a3.35,3.35,0,0,0,.18-1.05,4.63,4.63,0,0,1,4.35-4.82Zm1.51-1.6a22,22,0,0,1,2.7,0,7.83,7.83,0,0,1,4.31,1.93,1.38,1.38,0,0,1-.92,2.54,13.52,13.52,0,0,1-2.45-.35c-1.47-.36-2.9-.87-4.37-1.23A3.33,3.33,0,0,0,22.76,32c.61,0,1.23-.12,1.84-.1a7.54,7.54,0,0,1,4.2,1.35c.41.3.84.72.61,1.22s-.69.61-1.07.89a.45.45,0,0,1-.31.05c-1.43-.15-2.88-.24-4.3-.47s-1.59-.33-2.14,1.12A9.15,9.15,0,0,0,21,42.46c.78,2.27,1.81,2.67,3.64,1.87a12.36,12.36,0,0,0,2.75-1.49c2.3-1.8,4.58-3.63,6.76-5.57a61.26,61.26,0,0,0,8.35-8.91,21.55,21.55,0,0,0,3.28-5.47C46.53,21,46,20,44,19.54l-.13,0a6.63,6.63,0,0,0-4.3.52c-1.2.55-2.32,1.27-3.73,1.05a3.27,3.27,0,0,0-1.07.1,2.05,2.05,0,0,0-1.53.76,1.84,1.84,0,0,0,.4.09A11.63,11.63,0,0,1,38,23.13a4.42,4.42,0,0,1,1.37,1,.86.86,0,0,1-.17,1.34,2.26,2.26,0,0,1-2,.51c-1.38-.34-2.77-.71-4.11-1.17a5.8,5.8,0,0,0-4.24.05A2.21,2.21,0,0,0,27.44,26.44Zm6.44,3.28c-.79-1.6-5.79-3.1-6.73-1.54l4.21,1.25a9.86,9.86,0,0,0,1.31.28A12,12,0,0,0,33.88,29.72Zm-1.26-6.39c2.52,1.17,4.69,1.67,5.63,1.28A9.5,9.5,0,0,0,32.62,23.33ZM27.91,34.25c-1.27-1.14-4.3-1.51-5.22-.67A23,23,0,0,0,27.91,34.25Z"/></g></g></svg>