<svg xmlns="http://www.w3.org/2000/svg" viewBox="0 0 39.17 24"><defs><style>.cls-1{fill:#39b54a;}</style></defs><title>precio</title><g id="Capa_2" data-name="Capa 2"><g id="Capa_1-2" data-name="Capa 1"><rect class="cls-1" x="13.5" width="1" height="6.5"/><path class="cls-1" d="M38.79,12.92a1.3,1.3,0,0,0,0-1.84L36.92,9.21a.29.29,0,0,1,0-.42l1.37-1.37a1.3,1.3,0,0,0,0-1.84L36.42,3.71a.29.29,0,0,1,0-.42L38,1.71V0H8V6H9V1H37v.29L35.71,2.58a1.3,1.3,0,0,0,0,1.84l1.87,1.87a.29.29,0,0,1,0,.42L36.21,8.08a1.3,1.3,0,0,0,0,1.84l1.87,1.87a.29.29,0,0,1,0,.42l-1.87,1.87a1.3,1.3,0,0,0,0,1.84l.79.79V17H30.71l.08.08a1.33,1.33,0,0,1,.38.92H38V16.29l-1.08-1.08a.29.29,0,0,1,0-.42Z"/><path class="cls-1" d="M30,24H0V6H30V7.71L28.42,9.29a.29.29,0,0,0,0,.42l1.87,1.87a1.3,1.3,0,0,1,0,1.84l-1.37,1.37a.29.29,0,0,0,0,.42l1.87,1.87a1.3,1.3,0,0,1,0,1.84l-1.87,1.87a.29.29,0,0,0,0,.42L30,22.29ZM1,23H29v-.29l-.79-.79a1.3,1.3,0,0,1,0-1.84l1.87-1.87a.29.29,0,0,0,0-.42l-1.87-1.87a1.3,1.3,0,0,1,0-1.84l1.37-1.37a.29.29,0,0,0,0-.42l-1.87-1.87a1.3,1.3,0,0,1,0-1.84L29,7.29V7H1Z"/><rect class="cls-1" x="5.5" y="6" width="1" height="17"/><path class="cls-1" d="M12.48,18.4a3.75,3.75,0,0,0,1.87.52c1.06,0,1.69-.56,1.69-1.38s-.43-1.18-1.53-1.6c-1.31-.47-2.13-1.15-2.13-2.29A2.33,2.33,0,0,1,15,11.45a3.6,3.6,0,0,1,1.79.4l-.29.85A3.12,3.12,0,0,0,15,12.32c-1.11,0-1.52.65-1.52,1.21,0,.75.49,1.12,1.6,1.56,1.37.52,2.07,1.18,2.07,2.37s-.93,2.33-2.84,2.33a4.16,4.16,0,0,1-2.06-.52Z"/><path class="cls-1" d="M16.24,20.15l3.35-8.7h.82l-3.36,8.7Z"/><path class="cls-1" d="M19.63,19a.71.71,0,0,1,.72-.75.69.69,0,0,1,.7.75.7.7,0,0,1-.72.76A.71.71,0,0,1,19.63,19Z"/></g></g></svg>