<svg xmlns="http://www.w3.org/2000/svg" viewBox="0 0 31 33.51"><defs><style>.cls-1{fill:#39b54a;}</style></defs><title>segura</title><g id="Capa_2" data-name="Capa 2"><g id="Capa_1-2" data-name="Capa 1"><path class="cls-1" d="M30.5,5.51C19.55,5.51,16.05.56,16,0H15C15,.56,11.45,5.51.5,5.51H0V6c0,21.7,9.74,27.5,15.5,27.5S31,27.71,31,6v-.5Zm-15,27C10.16,32.51,1.14,27,1,6.5c8.49-.12,13.07-3.3,14.5-5.32,1.43,2,6,5.2,14.5,5.32C29.86,27,20.84,32.51,15.5,32.51Z"/><path class="cls-1" d="M7,17a8.5,8.5,0,1,0,8.5-8.5A8.51,8.51,0,0,0,7,17Zm16,0a7.5,7.5,0,1,1-7.5-7.5A7.51,7.51,0,0,1,23,17Z"/><polygon class="cls-1" points="11.35 16.15 10.65 16.86 14 20.21 19.35 14.86 18.65 14.15 14 18.8 11.35 16.15"/></g></g></svg>