<svg xmlns="http://www.w3.org/2000/svg" viewBox="0 0 222.5 20.5"><defs><style>.cls-1{fill:#b2b2b2;}.cls-2{fill:#e62e04;}</style></defs><title>sucribete</title><g id="Capa_2" data-name="Capa 2"><g id="Capa_1-2" data-name="Capa 1"><path class="cls-1" d="M222.5,20.5H0V0H222.5ZM.5,20H222V.5H.5Z"/><path class="cls-1" d="M5.35,7.6v5.58H4.63V7.6Z"/><path class="cls-1" d="M6.67,10.25c0-.41,0-.75,0-1.08h.65l0,.66h0a1.47,1.47,0,0,1,1.32-.75c.56,0,1.42.33,1.42,1.71v2.39H9.35V10.87c0-.65-.24-1.19-.93-1.19a1,1,0,0,0-1,.75.87.87,0,0,0,0,.34v2.41H6.67Z"/><path class="cls-1" d="M12.11,8V9.17h1v.55h-1v2.17c0,.49.14.78.54.78a1.94,1.94,0,0,0,.43-.05l0,.54a1.73,1.73,0,0,1-.65.1,1,1,0,0,1-.78-.3,1.5,1.5,0,0,1-.29-1.05V9.72h-.62V9.17h.62v-1Z"/><path class="cls-1" d="M14,10.42c0-.47,0-.88,0-1.25h.63l0,.79h0a1.2,1.2,0,0,1,1.11-.88l.21,0v.69a.94.94,0,0,0-.25,0,1,1,0,0,0-1,.93,3.31,3.31,0,0,0,0,.34v2.14H14Z"/><path class="cls-1" d="M20,12.09c0,.41,0,.78,0,1.09h-.64l0-.65h0a1.5,1.5,0,0,1-1.32.74c-.63,0-1.39-.35-1.39-1.76V9.17h.73v2.22c0,.76.23,1.28.9,1.28a1,1,0,0,0,1-1V9.17H20Z"/><path class="cls-1" d="M24.7,7.3v4.84c0,.36,0,.77,0,1h-.66l0-.7h0a1.48,1.48,0,0,1-1.37.79,1.82,1.82,0,0,1-1.71-2,1.92,1.92,0,0,1,1.8-2.15A1.36,1.36,0,0,1,24,9.69h0V7.3ZM24,10.8a1.53,1.53,0,0,0,0-.3,1.08,1.08,0,0,0-1.05-.85c-.76,0-1.2.66-1.2,1.55s.39,1.48,1.18,1.48a1.09,1.09,0,0,0,1.07-.87,1.55,1.55,0,0,0,0-.31Z"/><path class="cls-1" d="M29.26,12.09c0,.41,0,.78,0,1.09h-.65l0-.65h0a1.5,1.5,0,0,1-1.32.74c-.63,0-1.39-.35-1.39-1.76V9.17h.73v2.22c0,.76.23,1.28.9,1.28a1,1,0,0,0,1-1V9.17h.73Z"/><path class="cls-1" d="M33.33,13a2.67,2.67,0,0,1-1.15.23,1.91,1.91,0,0,1-2-2,2,2,0,0,1,2.15-2.13,2.37,2.37,0,0,1,1,.2l-.16.57a1.69,1.69,0,0,0-.85-.19,1.39,1.39,0,0,0-1.41,1.51,1.37,1.37,0,0,0,1.39,1.5,1.92,1.92,0,0,0,.89-.2Z"/><path class="cls-1" d="M34.54,11.31a1.28,1.28,0,0,0,1.37,1.39A2.56,2.56,0,0,0,37,12.49l.13.52a3.21,3.21,0,0,1-1.34.25,1.86,1.86,0,0,1-2-2,1.94,1.94,0,0,1,1.88-2.16A1.7,1.7,0,0,1,37.38,11a2.36,2.36,0,0,1,0,.34Zm2.13-.52a1,1,0,0,0-1-1.19,1.21,1.21,0,0,0-1.12,1.19Z"/><path class="cls-1" d="M40.91,8V9.17H42v.55H40.91v2.17c0,.49.14.78.55.78a1.83,1.83,0,0,0,.42-.05l0,.54a1.71,1.71,0,0,1-.64.1,1,1,0,0,1-.79-.3,1.5,1.5,0,0,1-.28-1.05V9.72h-.62V9.17h.62v-1Z"/><path class="cls-1" d="M46.13,12.09c0,.41,0,.78,0,1.09h-.64l-.05-.65h0a1.52,1.52,0,0,1-1.33.74c-.63,0-1.38-.35-1.38-1.76V9.17h.73v2.22c0,.76.23,1.28.89,1.28a1,1,0,0,0,1-.67,1.06,1.06,0,0,0,.07-.37V9.17h.73Z"/><path class="cls-1" d="M49.5,11.31a1.28,1.28,0,0,0,1.37,1.39A2.56,2.56,0,0,0,52,12.49l.13.52a3.21,3.21,0,0,1-1.34.25,1.86,1.86,0,0,1-2-2,1.94,1.94,0,0,1,1.88-2.16A1.7,1.7,0,0,1,52.34,11a2.36,2.36,0,0,1,0,.34Zm2.13-.52a1,1,0,0,0-1-1.19,1.22,1.22,0,0,0-1.12,1.19Z"/><path class="cls-1" d="M53.24,10.25c0-.41,0-.75,0-1.08h.63l0,.65h0a1.38,1.38,0,0,1,1.26-.74,1.19,1.19,0,0,1,1.14.8h0a1.66,1.66,0,0,1,.45-.52,1.39,1.39,0,0,1,.89-.28c.53,0,1.31.35,1.31,1.74v2.36h-.71V10.91c0-.77-.28-1.24-.87-1.24a.94.94,0,0,0-.86.67,1.29,1.29,0,0,0-.06.36v2.48h-.71v-2.4c0-.64-.28-1.11-.84-1.11a1,1,0,0,0-.9.73,1.09,1.09,0,0,0-.06.36v2.42h-.71Z"/><path class="cls-1" d="M62.36,13.18l0-.51h0a1.47,1.47,0,0,1-1.22.6,1.14,1.14,0,0,1-1.23-1.15c0-1,.86-1.5,2.41-1.49v-.09a.82.82,0,0,0-.91-.92,1.92,1.92,0,0,0-1,.3l-.17-.49a2.53,2.53,0,0,1,1.32-.35c1.22,0,1.52.84,1.52,1.64v1.5a5.54,5.54,0,0,0,.07,1Zm-.1-2c-.8,0-1.7.13-1.7.91a.64.64,0,0,0,.69.69,1,1,0,0,0,1-.67.64.64,0,0,0,0-.23Z"/><path class="cls-1" d="M65,8a.46.46,0,1,1-.45-.45A.44.44,0,0,1,65,8Zm-.82,5.14v-4h.73v4Z"/><path class="cls-1" d="M66.07,7.3h.73v5.88h-.73Z"/><path class="cls-2" d="M196.78,9.6a1.2,1.2,0,0,0-1.11,1.19h2.12A1,1,0,0,0,196.78,9.6Z"/><path class="cls-2" d="M203.62,9.6a1.21,1.21,0,0,0-1.12,1.19h2.13A1,1,0,0,0,203.62,9.6Z"/><path class="cls-2" d="M192.41,9.66a1.17,1.17,0,0,0-1.11.89,2.43,2.43,0,0,0,0,.3v.72a2.48,2.48,0,0,0,0,.27,1.13,1.13,0,0,0,1.1.85c.76,0,1.22-.62,1.22-1.54S193.19,9.66,192.41,9.66Z"/><path class="cls-2" d="M157.75.25v20h64.5V.25Zm13.65,13a2.9,2.9,0,0,1-1.43-.35l.19-.61a2.52,2.52,0,0,0,1.29.37c.74,0,1.17-.39,1.17-1s-.3-.82-1.06-1.11c-.91-.32-1.47-.79-1.47-1.58A1.61,1.61,0,0,1,171.9,7.5a2.53,2.53,0,0,1,1.23.28l-.2.59a2.18,2.18,0,0,0-1.06-.27c-.76,0-1.05.46-1.05.84s.34.78,1.11,1.07c.94.37,1.42.82,1.42,1.65S172.72,13.26,171.4,13.26Zm5.65-.08,0-.65h0a1.52,1.52,0,0,1-1.33.74c-.63,0-1.38-.35-1.38-1.76V9.17H175v2.22c0,.76.23,1.28.89,1.28a1,1,0,0,0,1-.67,1.06,1.06,0,0,0,.07-.37V9.17h.73v2.92c0,.41,0,.78,0,1.09Zm2.67.08a2.25,2.25,0,0,1-1.13-.27l.18-.56a1.86,1.86,0,0,0,1,.29c.53,0,.77-.26.77-.59s-.2-.54-.74-.74c-.72-.26-1.06-.65-1.06-1.14a1.23,1.23,0,0,1,1.38-1.17,2,2,0,0,1,1,.25l-.18.53a1.57,1.57,0,0,0-.82-.23c-.44,0-.68.24-.68.54s.24.48.77.68c.69.27,1.05.61,1.05,1.21S180.67,13.26,179.72,13.26Zm4.27-.58a2,2,0,0,0,.9-.2L185,13a2.67,2.67,0,0,1-1.15.23,1.91,1.91,0,0,1-2-2A2,2,0,0,1,184,9.09a2.45,2.45,0,0,1,1,.2l-.17.57a1.65,1.65,0,0,0-.84-.19,1.39,1.39,0,0,0-1.42,1.51A1.38,1.38,0,0,0,184,12.68Zm3.85-2.89a.94.94,0,0,0-.25,0,1,1,0,0,0-1,.93,1.76,1.76,0,0,0,0,.34v2.14h-.72V10.42c0-.47,0-.88,0-1.25h.64l0,.79h0a1.22,1.22,0,0,1,1.11-.88l.21,0Zm1.49,3.39h-.73v-4h.73ZM189,8.49a.43.43,0,0,1-.44-.45.44.44,0,0,1,.46-.45.45.45,0,0,1,0,.9Zm3.59,4.78a1.44,1.44,0,0,1-1.35-.75h0l0,.66h-.63c0-.27,0-.68,0-1V7.3h.72V9.82h0a1.48,1.48,0,0,1,1.36-.74c1,0,1.7.83,1.69,2.05A1.9,1.9,0,0,1,192.54,13.27Zm5.93-2h-2.81A1.28,1.28,0,0,0,197,12.7a2.56,2.56,0,0,0,1.11-.21l.13.52a3.21,3.21,0,0,1-1.34.25,1.86,1.86,0,0,1-2-2,1.94,1.94,0,0,1,1.88-2.16A1.7,1.7,0,0,1,198.5,11,2.36,2.36,0,0,1,198.47,11.31Zm2.85-1.59h-1v2.17c0,.49.14.78.54.78a1.94,1.94,0,0,0,.43-.05l0,.54a1.73,1.73,0,0,1-.65.1,1,1,0,0,1-.78-.3,1.5,1.5,0,0,1-.29-1.05V9.72h-.62V9.17h.62v-1l.72-.19V9.17h1Zm4,1.59H202.5a1.28,1.28,0,0,0,1.37,1.39,2.56,2.56,0,0,0,1.11-.21l.13.52a3.21,3.21,0,0,1-1.34.25,1.86,1.86,0,0,1-2-2,1.94,1.94,0,0,1,1.88-2.16A1.7,1.7,0,0,1,205.34,11,2.36,2.36,0,0,1,205.31,11.31Z"/></g></g></svg>