<svg xmlns="http://www.w3.org/2000/svg" viewBox="0 0 21 21"><defs><style>.cls-1{fill:#32ddf2;}</style></defs><title>twitter</title><g id="Capa_2" data-name="Capa 2"><g id="Capa_1-2" data-name="Capa 1"><path class="cls-1" d="M21,.09C21,0,21,0,20.91,0H.09C0,0,0,0,0,.09V20.91C0,21,0,21,.09,21H20.91c.07,0,.09,0,.09-.09Zm-2.72,10.1a2.26,2.26,0,0,1-1.3.57,2.69,2.69,0,0,1-.4,0s-.08,0-.09.07a6.43,6.43,0,0,1-2.91,3.77,8.7,8.7,0,0,1-3.76,1.29,8.25,8.25,0,0,1-4.17-.61A7.5,7.5,0,0,1,2.72,13s-.05,0,0-.1a4.19,4.19,0,0,0,3.87.84,4.07,4.07,0,0,0,1.86-1.1,2.63,2.63,0,0,1-.41,0,1,1,0,0,1-.54-.27.52.52,0,0,1,0-.75,2.1,2.1,0,0,1,.41-.31H7.72A1.81,1.81,0,0,1,6,10.44a.11.11,0,0,1,0-.16A1.45,1.45,0,0,1,7,9.93l.06,0-.13,0a2.64,2.64,0,0,1-1-.52,1.73,1.73,0,0,1-.54-.92c0-.08,0-.1.09-.12a3.62,3.62,0,0,1,.82-.09.26.26,0,0,0-.12-.09,2.6,2.6,0,0,1-1-1.06,1.76,1.76,0,0,1-.17-.71c0-.12,0-.13.12-.09A32.44,32.44,0,0,1,8.9,8a5.46,5.46,0,0,1,1.06.8l.15.15c.06.07.08,0,.11,0a14.21,14.21,0,0,1,.92-2,5,5,0,0,1,1.37-1.61s.09-.09.13-.06,0,.1,0,.14a2.24,2.24,0,0,1-.11.22,2.67,2.67,0,0,1,.62-.37,2.13,2.13,0,0,1,.45-.13c.08,0,.09,0,.06.08a.7.7,0,0,1-.22.26l-.17.12.26-.08a2.61,2.61,0,0,1,.55-.14h.18a.17.17,0,0,1,.14.1.19.19,0,0,1,0,.18.66.66,0,0,1-.22.15,4.56,4.56,0,0,1-.6.18,2.14,2.14,0,0,0-.42.16,3.5,3.5,0,0,1,.72.06,3.4,3.4,0,0,1,1.92,1.29,3.57,3.57,0,0,1,.69,1.52.21.21,0,0,0,.19.19A2.92,2.92,0,0,0,17.89,9a1.6,1.6,0,0,0,.31-.1s.06,0,.08,0,0,.06,0,.09a1.56,1.56,0,0,1-.59.58,2.64,2.64,0,0,1-1,.32,3.78,3.78,0,0,0,1.7.19C18.35,10.15,18.31,10.16,18.28,10.19Z"/></g></g></svg>