<svg xmlns="http://www.w3.org/2000/svg" viewBox="0 0 66 66"><defs><style>.cls-1{fill:#4cac37;}.cls-2{fill:#fff;}</style></defs><title>verduras</title><g id="Capa_2" data-name="Capa 2"><g id="Capa_1-2" data-name="Capa 1"><circle class="cls-1" cx="33" cy="33" r="33"/><path class="cls-2" d="M34.55,15.57a3.83,3.83,0,0,0-2.19,1.08l-.24.25-.48-.18a4.88,4.88,0,0,0-2.37-.13,4,4,0,0,0-2,1.15A4,4,0,0,0,26,20.26c-.05.36-.07.39-.45.64a4.65,4.65,0,0,0-.8.66c-.36.38-.41.41-.57.34a3.59,3.59,0,0,0-.93-.08,2.93,2.93,0,0,0-1.93.57c-.37.24-.37.24-.85.16a3.69,3.69,0,0,0-2.47.58,3.32,3.32,0,0,0-1.27,2.15l-.07.48-.34.16a2.78,2.78,0,0,0-1.23,1.28,2.06,2.06,0,0,0-.22,1.25,2.19,2.19,0,0,0,.19,1.19A3.11,3.11,0,0,0,16.35,31c.41.21.42.23.47.59A3.67,3.67,0,0,0,18,33.72a4.06,4.06,0,0,0,2.05.82c.16,0,.2,0,.24.27a2.5,2.5,0,0,0,1.3,1.78c.39.19.47.2,1.38.22A3.67,3.67,0,0,1,24.3,37c1.16.44,2.48,1.93,3.51,4A21.48,21.48,0,0,1,30,48.84a1.76,1.76,0,0,0,.85,1.37l.35.21,1.58,0c1.94,0,2.22,0,2.66-.29.61-.41.7-.64.91-2.48A29.53,29.53,0,0,1,38,40a6,6,0,0,1,2.35-3.07,1.69,1.69,0,0,1,1.59-.11,2.5,2.5,0,0,0,1.32.16,3,3,0,0,0,2-.66,3.79,3.79,0,0,0,.66-.67c.18-.26.3-.35.43-.36A2.87,2.87,0,0,0,49,32.49c0-.25,0-.28.41-.48a3.38,3.38,0,0,0,1.33-1.35,3.46,3.46,0,0,0-.28-3.42c-.21-.29-.24-.34-.17-.59a3.32,3.32,0,0,0-1.43-3.39,3.77,3.77,0,0,0-1.5-.49c-.25,0-.29,0-.43-.31a2.64,2.64,0,0,0-1.27-1.24A2.15,2.15,0,0,0,44.33,21h-.82l0-.35a4.6,4.6,0,0,0-3.41-4,5.42,5.42,0,0,0-2,0l-.4.08-.38-.28A3.73,3.73,0,0,0,34.55,15.57ZM36.11,17a3.56,3.56,0,0,1,.76.59c.42.45.62.5,1.14.28a2.42,2.42,0,0,1,.82-.16A3.09,3.09,0,0,1,42,19.48a2.33,2.33,0,0,1,.28,1.17,2.23,2.23,0,0,1-.12,1.09,3.61,3.61,0,0,0-.2.72c0,.28,0,.31.33.59a1,1,0,0,1,.43,1.16,1,1,0,0,1-.42.53c-.45.31-.5.54-.24,1a2.27,2.27,0,0,1,0,1.82,2.34,2.34,0,0,1-.94.87c-.48.25-.53.43-.36,1.16a1.55,1.55,0,0,1,0,.8,1.9,1.9,0,0,1-2.34,1.47,1.88,1.88,0,0,1-1.26-.79c-.44-.57-.81-.56-1.27.05a3.29,3.29,0,0,1-1.35,1,2.51,2.51,0,0,1-1.21.17A2.57,2.57,0,0,1,32,32.16a2.54,2.54,0,0,1-1-.72,3.32,3.32,0,0,0-.66-.57c-.12,0-.33,0-.78.26a2,2,0,0,1-1.3.31,2,2,0,0,1-1.07-.19,2.19,2.19,0,0,1-1.34-2.09A1.57,1.57,0,0,1,26.13,28a2.87,2.87,0,0,0,.29-.73c0-.12-.18-.35-.6-.76a2.63,2.63,0,0,1-.74-1,3.07,3.07,0,0,1,.1-2.43,2.79,2.79,0,0,1,1.41-1.31,2.07,2.07,0,0,0,.59-.34,4,4,0,0,0,.1-.84,2.56,2.56,0,0,1,.26-1.23,2.85,2.85,0,0,1,2.91-1.6,2.36,2.36,0,0,1,1.14.33c.84.43.82.43,1.6-.49a2.09,2.09,0,0,1,1.93-.77A2,2,0,0,1,36.11,17Zm8.75,5.12A2.05,2.05,0,0,1,46,23.36c.16.55.28.63,1,.63a1.9,1.9,0,0,1,1.6.65,1.85,1.85,0,0,1,.42,1.95,1.66,1.66,0,0,0-.12.55c0,.23.05.31.34.59a1.89,1.89,0,0,1-.07,3,1.84,1.84,0,0,1-1,.46.75.75,0,0,0-.35.21c-.14.14-.14.2-.1.75a1.39,1.39,0,0,1-.14,1A1.67,1.67,0,0,1,46,34c-.55,0-.64.05-1,.61a2.5,2.5,0,0,1-1,1,2.39,2.39,0,0,1-1.82,0,2.57,2.57,0,0,1-1.09-1.1c-.27-.53-.44-.65-.89-.59s-.37,0-.55-.14a.5.5,0,0,1-.19-.41c0-.22,0-.25.37-.37a3.69,3.69,0,0,0,1.41-1,3.29,3.29,0,0,0,.81-2.34c0-.28,0-.3.4-.7a3.64,3.64,0,0,0,1-1.86,2.73,2.73,0,0,0-.09-1.33c-.07-.3-.07-.34.1-.57a2.18,2.18,0,0,0,.1-2.61c-.18-.26-.18-.26,0-.36A1.57,1.57,0,0,1,44.86,22.14Zm-21.14,1.1a6.66,6.66,0,0,0,0,2.14A4.72,4.72,0,0,0,24.61,27l.32.4-.15.44A3.43,3.43,0,0,0,25,30.61a4,4,0,0,0,2.91,2.12c.31.05.33.12.07.36a.46.46,0,0,1-.5.13.69.69,0,0,0-.88.51,1.32,1.32,0,0,1-1.54.9c-.63-.17-.85-.1-1.12.36a1.43,1.43,0,0,1-1.64.62,2.28,2.28,0,0,1-.74-.74,1.11,1.11,0,0,1-.07-.69c.05-.43,0-.49-.12-.68s-.19-.2-.95-.2a1.81,1.81,0,0,1-1.14-.2A2.2,2.2,0,0,1,18,31c.07-.65-.07-.82-.85-1A1.76,1.76,0,0,1,16,28.45a1.73,1.73,0,0,1,1.27-1.58c.63-.18.69-.26.69-1a1.71,1.71,0,0,1,.68-1.58,1.86,1.86,0,0,1,2-.41,2.93,2.93,0,0,0,.55.15,1.46,1.46,0,0,0,.57-.37A1.74,1.74,0,0,1,23.24,23h.5Zm6.6,9.24a2.39,2.39,0,0,0,.45.37l.34.24a4.1,4.1,0,0,1,.16.68,24.8,24.8,0,0,1,.39,4.2l.05,1.53-.56-1.07a18.72,18.72,0,0,0-2.42-3.64c-.37-.44-.39-.48-.27-.55a2.11,2.11,0,0,0,.91-1.41,1.06,1.06,0,0,1,.7-.5A.49.49,0,0,1,30.32,32.48Zm6.52,0c.11.09.38.29.6.44l.4.28-.35.44a18.48,18.48,0,0,0-1.29,1.89l-.34.57,0-1.3c0-.71-.07-1.41-.1-1.55s0-.27.38-.58a2.27,2.27,0,0,1,.48-.34A.6.6,0,0,1,36.84,32.49Zm-2.33,1.18c0,.07.05.56.08,1.09a18.27,18.27,0,0,1-.47,4.87c-.18.72-.17.81.07,1.06a.56.56,0,0,0,.78.08,4.63,4.63,0,0,0,.5-1A27,27,0,0,1,38,35.09l.45-.64c0-.05.17,0,.34.22a1.9,1.9,0,0,0,1.11.52.37.37,0,0,1,.26.2l.12.2-.45.23c-1.84,1-3.28,3.72-4.14,8-.24,1.17-.51,2.93-.69,4.57l-.1.79H31.24l0-.47C31.06,47.59,31,47,30.8,46.1c-.87-4.39-3.16-8.54-5.49-9.94l-.39-.24.52,0A2.66,2.66,0,0,0,27,35.25L27.3,35l.25.27a18.33,18.33,0,0,1,3.86,7.21,2.73,2.73,0,0,0,.27.69.63.63,0,0,0,1-.2,32.61,32.61,0,0,0,.21-5.13,29.21,29.21,0,0,0-.3-3.86l-.05-.36.56,0a4.59,4.59,0,0,0,.88,0C34.45,33.53,34.47,33.53,34.51,33.67Z"/><path class="cls-2" d="M38.93,18a.56.56,0,0,0-.31.37c-.08.24-.07.28.17.67a1.66,1.66,0,0,1-.13,2.25,1.78,1.78,0,0,1-2.67,0,.73.73,0,0,0-.83-.22.85.85,0,0,0-.32.6c0,.31.76,1,1.37,1.19a3,3,0,0,0,4-2.22c.21-1-.26-2.46-.87-2.67l-.23-.08Z"/><path class="cls-2" d="M30.29,19a3.4,3.4,0,0,0-1.95,1.23,3.06,3.06,0,0,0,0,3.43,2.74,2.74,0,0,0,1.14,1c.42.2.69.18.9-.09s.13-.76-.43-1.05a1.66,1.66,0,0,1-.94-1.85,1.75,1.75,0,0,1,2.32-1.44.76.76,0,0,0,.55,0,.63.63,0,0,0,.22-1,2.87,2.87,0,0,0-1.26-.32A3.06,3.06,0,0,0,30.29,19Z"/><path class="cls-2" d="M32.72,21.77a1.55,1.55,0,0,0-.52,1.07,3.24,3.24,0,0,0,1,2.81,2.8,2.8,0,0,0,3.26.4c.81-.37,1.6-1.3,1.48-1.72a.64.64,0,0,0-.61-.49c-.28,0-.36.07-.8.7a1.81,1.81,0,0,1-3-.34,1.69,1.69,0,0,1-.06-1.46c.16-.42.15-.67-.06-.85A.79.79,0,0,0,32.72,21.77Z"/><path class="cls-2" d="M39.16,25c-.35.18-.43.56-.2,1a2.22,2.22,0,0,1,0,1.46,2.14,2.14,0,0,1-1.07,1c-.9.33-1.55.08-2.25-.86a.45.45,0,0,0-.44-.24.59.59,0,0,0-.62.61c0,.57.95,1.42,1.88,1.67a3.4,3.4,0,0,0,2.13-.14,3.15,3.15,0,0,0,1.64-3.27C40.1,25.18,39.66,24.72,39.16,25Z"/><path class="cls-2" d="M27.94,25.36c-.36.17-.59,1.11-.45,1.9a3.14,3.14,0,0,0,1.62,2.31,3.19,3.19,0,0,0,4-1.3c.2-.41.18-.67-.08-.89a.76.76,0,0,0-.38-.18,1,1,0,0,0-.69.57,1.71,1.71,0,0,1-1.69.89,1.77,1.77,0,0,1-1.55-2.32c.18-.53.12-.8-.23-1A.58.58,0,0,0,27.94,25.36Z"/><path class="cls-2" d="M47.63,26.8a.78.78,0,0,0-.13.89A1.77,1.77,0,0,1,45.58,30a1.47,1.47,0,0,1-1.24-.76c-.37-.61-.63-.77-1.05-.61a.87.87,0,0,0-.32.57,2.24,2.24,0,0,0,.73,1.13,3,3,0,0,0,4.76-.77,3.46,3.46,0,0,0,.36-1.47,2.62,2.62,0,0,0-.37-1.27A.7.7,0,0,0,47.63,26.8Z"/><path class="cls-2" d="M19,26.16a2.59,2.59,0,0,0-.25,2.36,3.12,3.12,0,0,0,1.78,1.89,3.63,3.63,0,0,0,2.16-.06,3.22,3.22,0,0,0,1.71-1.65.61.61,0,0,0-.36-.79c-.32-.14-.6,0-.82.42a2.11,2.11,0,0,1-1.11,1,2.07,2.07,0,0,1-1.91-.61,1.55,1.55,0,0,1-.33-1.65c.15-.48.14-.58-.1-.82A.58.58,0,0,0,19,26.16Z"/></g></g></svg>